<svg width="18" height="21" viewBox="0 0 18 21" fill="none" xmlns="http://www.w3.org/2000/svg">
<g clip-path="url(#clip0_11_338)">
<path d="M14.555 11.3689C14.5461 9.73019 15.2873 8.49335 16.7876 7.58247C15.9481 6.38136 14.68 5.72053 13.0056 5.59104C11.4205 5.46602 9.68807 6.51532 9.05402 6.51532C8.38426 6.51532 6.84826 5.63569 5.64269 5.63569C3.15116 5.67588 0.503357 7.62266 0.503357 11.5832C0.503357 12.7531 0.717682 13.9616 1.14633 15.2089C1.71787 16.8476 3.78074 20.8662 5.93292 20.7992C7.05812 20.7724 7.85291 19.9999 9.31746 19.9999C10.7374 19.9999 11.4741 20.7992 12.7288 20.7992C14.8988 20.7679 16.7652 17.1155 17.31 15.4723C14.3987 14.1015 14.555 11.4537 14.555 11.3689ZM12.0278 4.03719C13.2468 2.59049 13.1351 1.27329 13.0994 0.799988C12.0233 0.862499 10.7776 1.53226 10.0676 2.35831C9.28621 3.2424 8.8263 4.33635 8.92454 5.56871C10.0899 5.65802 11.1526 5.05969 12.0278 4.03719Z" fill="black"/>
</g>
<defs>
<clipPath id="clip0_11_338">
<rect width="17" height="20" fill="white" transform="translate(0.309998 0.799988)"/>
</clipPath>
</defs>
</svg>
