<svg width="194" height="57" viewBox="0 0 194 57" fill="none" xmlns="http://www.w3.org/2000/svg">
<path d="M38.7028 28.21H38.2928C38.2728 27.9233 38.2261 27.6833 38.1528 27.49C38.0794 27.2967 37.9728 27.1467 37.8328 27.04C37.6994 26.9267 37.5294 26.8467 37.3228 26.8C37.1161 26.7533 36.8694 26.73 36.5828 26.73C36.3361 26.73 36.1361 26.7367 35.9828 26.75C35.8361 26.7567 35.7228 26.7733 35.6428 26.8C35.5628 26.8267 35.5094 26.86 35.4828 26.9C35.4628 26.9333 35.4528 26.98 35.4528 27.04V32.39C35.4528 32.6033 35.4661 32.7867 35.4928 32.94C35.5261 33.0933 35.5861 33.22 35.6728 33.32C35.7661 33.4133 35.8961 33.4867 36.0628 33.54C36.2361 33.5867 36.4628 33.6133 36.7428 33.62V34H32.9628V33.62C33.2428 33.6133 33.4694 33.5867 33.6428 33.54C33.8161 33.4867 33.9461 33.4133 34.0328 33.32C34.1261 33.22 34.1861 33.0933 34.2128 32.94C34.2461 32.7867 34.2628 32.6033 34.2628 32.39V27.04C34.2628 26.98 34.2494 26.9333 34.2228 26.9C34.2028 26.86 34.1561 26.8267 34.0828 26.8C34.0161 26.7733 33.9194 26.7567 33.7928 26.75C33.6661 26.7367 33.4961 26.73 33.2828 26.73C33.0228 26.73 32.7794 26.74 32.5528 26.76C32.3328 26.78 32.1394 26.84 31.9728 26.94C31.8128 27.0333 31.6828 27.18 31.5828 27.38C31.4828 27.58 31.4294 27.8567 31.4228 28.21H31.0528V26.3H38.6028L38.7028 28.21ZM41.325 31.04C40.945 31.1867 40.6216 31.33 40.355 31.47C40.095 31.61 39.885 31.75 39.725 31.89C39.565 32.03 39.4483 32.17 39.375 32.31C39.3083 32.45 39.275 32.5933 39.275 32.74C39.275 32.96 39.3483 33.14 39.495 33.28C39.6416 33.42 39.835 33.49 40.075 33.49C40.2483 33.49 40.4083 33.4467 40.555 33.36C40.7083 33.2733 40.8416 33.1567 40.955 33.01C41.0683 32.8567 41.1583 32.68 41.225 32.48C41.2916 32.2733 41.325 32.0567 41.325 31.83V31.04ZM41.325 30.61V30.2C41.325 29.3867 40.9783 28.98 40.285 28.98C40.1716 28.98 40.075 28.99 39.995 29.01C39.915 29.03 39.8483 29.0633 39.795 29.11C39.7416 29.1567 39.6916 29.2233 39.645 29.31C39.605 29.3967 39.565 29.5033 39.525 29.63C39.4516 29.8233 39.3783 29.9533 39.305 30.02C39.2383 30.08 39.1383 30.11 39.005 30.11C38.6716 30.11 38.505 29.9433 38.505 29.61C38.505 29.29 38.675 29.0433 39.015 28.87C39.355 28.69 39.8383 28.6 40.465 28.6C41.1316 28.6 41.605 28.72 41.885 28.96C42.165 29.1933 42.305 29.5933 42.305 30.16V32.4C42.305 33.16 42.455 33.54 42.755 33.54C42.8483 33.54 42.9383 33.53 43.025 33.51C43.1116 33.4833 43.185 33.42 43.245 33.32L43.385 33.56C43.305 33.7133 43.1583 33.8433 42.945 33.95C42.7316 34.05 42.5083 34.1 42.275 34.1C41.9816 34.1 41.7616 34.0067 41.615 33.82C41.475 33.6333 41.405 33.37 41.405 33.03H41.355C41.1816 33.3567 40.9416 33.6167 40.635 33.81C40.3283 33.9967 39.9883 34.09 39.615 34.09C39.195 34.09 38.865 33.9833 38.625 33.77C38.385 33.5567 38.265 33.27 38.265 32.91C38.265 32.75 38.2916 32.5967 38.345 32.45C38.405 32.3033 38.4983 32.1633 38.625 32.03C38.7516 31.8967 38.9183 31.7667 39.125 31.64C39.3316 31.5067 39.585 31.3733 39.885 31.24L41.325 30.61ZM45.6521 32.41C45.6521 32.67 45.6621 32.88 45.6821 33.04C45.7087 33.1933 45.7554 33.3167 45.8221 33.41C45.8887 33.4967 45.9821 33.5567 46.1021 33.59C46.2221 33.6233 46.3821 33.6433 46.5821 33.65V34H43.7121V33.65C43.9121 33.6433 44.0754 33.6233 44.2021 33.59C44.3287 33.55 44.4254 33.49 44.4921 33.41C44.5654 33.3233 44.6121 33.2067 44.6321 33.06C44.6587 32.9067 44.6721 32.7133 44.6721 32.48V31.2C44.6721 30.8133 44.6654 30.4967 44.6521 30.25C44.6454 29.9967 44.6287 29.8233 44.6021 29.73C44.5687 29.5767 44.4921 29.4733 44.3721 29.42C44.2521 29.36 44.0254 29.33 43.6921 29.33V28.98L45.6521 28.6V32.41ZM44.5021 26.57C44.5021 26.3967 44.5621 26.25 44.6821 26.13C44.8021 26.01 44.9487 25.95 45.1221 25.95C45.2954 25.95 45.4421 26.01 45.5621 26.13C45.6821 26.25 45.7421 26.3967 45.7421 26.57C45.7421 26.7433 45.6821 26.89 45.5621 27.01C45.4421 27.13 45.2954 27.19 45.1221 27.19C44.9487 27.19 44.8021 27.13 44.6821 27.01C44.5621 26.89 44.5021 26.7433 44.5021 26.57ZM48.8703 32.44C48.8703 32.6933 48.8803 32.8967 48.9003 33.05C48.9203 33.2033 48.9603 33.3233 49.0203 33.41C49.0869 33.4967 49.1769 33.5567 49.2903 33.59C49.4103 33.6233 49.5669 33.6433 49.7603 33.65V34H47.0003V33.65C47.2003 33.6433 47.3603 33.6233 47.4803 33.59C47.6003 33.55 47.6936 33.49 47.7603 33.41C47.8336 33.33 47.8803 33.22 47.9003 33.08C47.9269 32.9333 47.9403 32.7433 47.9403 32.51V28.2C47.9403 27.84 47.9336 27.54 47.9203 27.3C47.9136 27.0533 47.9003 26.8867 47.8803 26.8C47.8469 26.6467 47.7669 26.5433 47.6403 26.49C47.5203 26.4367 47.3003 26.41 46.9803 26.41V26.07L48.8703 25.7V32.44ZM53.2822 28.6C53.6622 28.6 54.0222 28.67 54.3622 28.81C54.7022 28.9433 54.9989 29.13 55.2522 29.37C55.5122 29.61 55.7156 29.8967 55.8622 30.23C56.0156 30.5567 56.0922 30.9167 56.0922 31.31C56.0922 31.7167 56.0156 32.09 55.8622 32.43C55.7156 32.77 55.5122 33.0633 55.2522 33.31C54.9989 33.5567 54.7022 33.75 54.3622 33.89C54.0222 34.03 53.6622 34.1 53.2822 34.1C52.9089 34.1 52.5522 34.0333 52.2122 33.9C51.8789 33.76 51.5856 33.5667 51.3322 33.32C51.0789 33.0733 50.8789 32.78 50.7322 32.44C50.5856 32.0933 50.5122 31.7167 50.5122 31.31C50.5122 30.9167 50.5856 30.5533 50.7322 30.22C50.8789 29.8867 51.0789 29.6 51.3322 29.36C51.5856 29.12 51.8789 28.9333 52.2122 28.8C52.5522 28.6667 52.9089 28.6 53.2822 28.6ZM53.2822 29.08C53.0356 29.08 52.8089 29.1333 52.6022 29.24C52.4022 29.3467 52.2289 29.5 52.0822 29.7C51.9422 29.8933 51.8322 30.13 51.7522 30.41C51.6789 30.6833 51.6422 30.9867 51.6422 31.32C51.6422 31.6667 51.6789 31.98 51.7522 32.26C51.8322 32.54 51.9422 32.78 52.0822 32.98C52.2289 33.1733 52.4022 33.3233 52.6022 33.43C52.8022 33.5367 53.0289 33.59 53.2822 33.59C53.5356 33.59 53.7656 33.5367 53.9722 33.43C54.1789 33.3233 54.3556 33.17 54.5022 32.97C54.6489 32.77 54.7622 32.53 54.8422 32.25C54.9222 31.97 54.9622 31.66 54.9622 31.32C54.9622 30.9867 54.9222 30.6833 54.8422 30.41C54.7622 30.1367 54.6489 29.9033 54.5022 29.71C54.3556 29.51 54.1789 29.3567 53.9722 29.25C53.7656 29.1367 53.5356 29.08 53.2822 29.08ZM58.7952 32.41C58.7952 32.6833 58.8019 32.9 58.8152 33.06C58.8285 33.22 58.8619 33.3433 58.9152 33.43C58.9752 33.51 59.0585 33.5633 59.1652 33.59C59.2719 33.6167 59.4219 33.6367 59.6152 33.65V34H56.9552V33.65C57.1485 33.6433 57.3019 33.6267 57.4152 33.6C57.5285 33.5667 57.6152 33.51 57.6752 33.43C57.7352 33.35 57.7719 33.2367 57.7852 33.09C57.8052 32.9367 57.8152 32.7333 57.8152 32.48V31.31C57.8152 30.8567 57.8085 30.5033 57.7952 30.25C57.7885 29.9967 57.7552 29.81 57.6952 29.69C57.6419 29.57 57.5552 29.5 57.4352 29.48C57.3152 29.4533 57.1485 29.44 56.9352 29.44V29.09L58.6852 28.71L58.8252 29.95H58.8652C58.9519 29.75 59.0585 29.5667 59.1852 29.4C59.3185 29.2333 59.4619 29.0933 59.6152 28.98C59.7685 28.86 59.9285 28.7667 60.0952 28.7C60.2619 28.6333 60.4319 28.6 60.6052 28.6C60.8185 28.6 60.9852 28.6533 61.1052 28.76C61.2319 28.86 61.2952 28.9967 61.2952 29.17C61.2952 29.33 61.2452 29.4567 61.1452 29.55C61.0452 29.6367 60.9019 29.68 60.7152 29.68C60.6085 29.68 60.5185 29.6667 60.4452 29.64C60.3719 29.6133 60.3052 29.5867 60.2452 29.56C60.1919 29.5267 60.1385 29.4967 60.0852 29.47C60.0385 29.4433 59.9852 29.43 59.9252 29.43C59.7452 29.43 59.5652 29.5467 59.3852 29.78C59.2052 30.0067 59.0652 30.2967 58.9652 30.65C58.9119 30.8433 58.8685 31.0633 58.8352 31.31C58.8085 31.55 58.7952 31.8033 58.7952 32.07V32.41ZM66.4534 33.07C65.8867 33.7567 65.1834 34.1 64.3434 34.1C63.9501 34.1 63.5934 34.0367 63.2734 33.91C62.9534 33.7767 62.6767 33.5933 62.4434 33.36C62.2167 33.12 62.0401 32.8367 61.9134 32.51C61.7867 32.1767 61.7234 31.81 61.7234 31.41C61.7234 31.0033 61.7901 30.6267 61.9234 30.28C62.0567 29.9333 62.2434 29.6367 62.4834 29.39C62.7301 29.1433 63.0201 28.95 63.3534 28.81C63.6934 28.67 64.0634 28.6 64.4634 28.6C65.1101 28.6 65.6101 28.7767 65.9634 29.13C66.3167 29.4767 66.4934 29.9767 66.4934 30.63C66.4934 30.7233 66.4734 30.78 66.4334 30.8C66.4001 30.82 66.3167 30.83 66.1834 30.83H62.8934C62.8801 30.8833 62.8701 30.95 62.8634 31.03C62.8567 31.1033 62.8534 31.1867 62.8534 31.28C62.8534 31.6267 62.8934 31.9433 62.9734 32.23C63.0601 32.51 63.1801 32.75 63.3334 32.95C63.4934 33.15 63.6801 33.3067 63.8934 33.42C64.1134 33.5267 64.3567 33.58 64.6234 33.58C64.9034 33.58 65.1634 33.52 65.4034 33.4C65.6434 33.2733 65.8901 33.07 66.1434 32.79L66.4534 33.07ZM64.8034 30.37C64.9367 30.37 65.0434 30.3667 65.1234 30.36C65.2034 30.3533 65.2634 30.34 65.3034 30.32C65.3434 30.3 65.3701 30.2733 65.3834 30.24C65.3967 30.2 65.4034 30.15 65.4034 30.09C65.4034 29.7833 65.3034 29.54 65.1034 29.36C64.9101 29.1733 64.6434 29.08 64.3034 29.08C63.5834 29.08 63.1367 29.51 62.9634 30.37H64.8034ZM71.8058 33.16H71.7658C71.5258 33.5 71.2692 33.7433 70.9958 33.89C70.7292 34.03 70.4125 34.1 70.0458 34.1C69.6658 34.1 69.3158 34.0333 68.9958 33.9C68.6825 33.76 68.4092 33.57 68.1758 33.33C67.9492 33.0833 67.7692 32.79 67.6358 32.45C67.5092 32.11 67.4458 31.74 67.4458 31.34C67.4458 30.9467 67.5092 30.5833 67.6358 30.25C67.7692 29.91 67.9492 29.62 68.1758 29.38C68.4092 29.1333 68.6858 28.9433 69.0058 28.81C69.3258 28.67 69.6725 28.6 70.0458 28.6C70.3658 28.6 70.6492 28.6533 70.8958 28.76C71.1492 28.8667 71.3925 29.0367 71.6258 29.27V28.25C71.6258 27.87 71.6192 27.5533 71.6058 27.3C71.5992 27.0467 71.5858 26.8733 71.5658 26.78C71.5325 26.6333 71.4392 26.53 71.2858 26.47C71.1325 26.41 70.8825 26.38 70.5358 26.38V26.08L72.5858 25.7V31.47C72.5858 31.93 72.5892 32.31 72.5958 32.61C72.6025 32.9033 72.6225 33.1133 72.6558 33.24C72.6758 33.32 72.6992 33.3867 72.7258 33.44C72.7592 33.4933 72.8025 33.5367 72.8558 33.57C72.9158 33.5967 72.9925 33.6167 73.0858 33.63C73.1858 33.6433 73.3125 33.65 73.4658 33.65V33.99L71.8058 34.1V33.16ZM71.6058 30.95C71.6058 30.6033 71.5858 30.34 71.5458 30.16C71.5125 29.98 71.4425 29.8233 71.3358 29.69C71.1825 29.49 70.9858 29.34 70.7458 29.24C70.5125 29.1333 70.2792 29.08 70.0458 29.08C69.5658 29.08 69.1992 29.28 68.9458 29.68C68.6992 30.0733 68.5758 30.61 68.5758 31.29C68.5758 31.6433 68.6058 31.9633 68.6658 32.25C68.7325 32.5367 68.8258 32.7833 68.9458 32.99C69.0725 33.19 69.2258 33.3467 69.4058 33.46C69.5925 33.5667 69.8058 33.62 70.0458 33.62C70.1658 33.62 70.2858 33.6067 70.4058 33.58C70.5325 33.5533 70.6525 33.5133 70.7658 33.46C70.8858 33.4 70.9958 33.3333 71.0958 33.26C71.1958 33.18 71.2792 33.09 71.3458 32.99C71.4392 32.8433 71.5058 32.6667 71.5458 32.46C71.5858 32.2533 71.6058 31.97 71.6058 31.61V30.95ZM84.1325 28.21H83.7225C83.7025 27.9233 83.6558 27.6833 83.5825 27.49C83.5091 27.2967 83.4025 27.1467 83.2625 27.04C83.1291 26.9267 82.9591 26.8467 82.7525 26.8C82.5458 26.7533 82.2991 26.73 82.0125 26.73C81.7658 26.73 81.5658 26.7367 81.4125 26.75C81.2658 26.7567 81.1525 26.7733 81.0725 26.8C80.9925 26.8267 80.9391 26.86 80.9125 26.9C80.8925 26.9333 80.8825 26.98 80.8825 27.04V32.39C80.8825 32.6033 80.8958 32.7867 80.9225 32.94C80.9558 33.0933 81.0158 33.22 81.1025 33.32C81.1958 33.4133 81.3258 33.4867 81.4925 33.54C81.6658 33.5867 81.8925 33.6133 82.1725 33.62V34H78.3925V33.62C78.6725 33.6133 78.8991 33.5867 79.0725 33.54C79.2458 33.4867 79.3758 33.4133 79.4625 33.32C79.5558 33.22 79.6158 33.0933 79.6425 32.94C79.6758 32.7867 79.6925 32.6033 79.6925 32.39V27.04C79.6925 26.98 79.6791 26.9333 79.6525 26.9C79.6325 26.86 79.5858 26.8267 79.5125 26.8C79.4458 26.7733 79.3491 26.7567 79.2225 26.75C79.0958 26.7367 78.9258 26.73 78.7125 26.73C78.4525 26.73 78.2091 26.74 77.9825 26.76C77.7625 26.78 77.5691 26.84 77.4025 26.94C77.2425 27.0333 77.1125 27.18 77.0125 27.38C76.9125 27.58 76.8591 27.8567 76.8525 28.21H76.4825V26.3H84.0325L84.1325 28.21ZM86.7546 31.04C86.3746 31.1867 86.0513 31.33 85.7846 31.47C85.5246 31.61 85.3146 31.75 85.1546 31.89C84.9946 32.03 84.878 32.17 84.8046 32.31C84.738 32.45 84.7046 32.5933 84.7046 32.74C84.7046 32.96 84.778 33.14 84.9246 33.28C85.0713 33.42 85.2646 33.49 85.5046 33.49C85.678 33.49 85.838 33.4467 85.9846 33.36C86.138 33.2733 86.2713 33.1567 86.3846 33.01C86.498 32.8567 86.588 32.68 86.6546 32.48C86.7213 32.2733 86.7546 32.0567 86.7546 31.83V31.04ZM86.7546 30.61V30.2C86.7546 29.3867 86.408 28.98 85.7146 28.98C85.6013 28.98 85.5046 28.99 85.4246 29.01C85.3446 29.03 85.278 29.0633 85.2246 29.11C85.1713 29.1567 85.1213 29.2233 85.0746 29.31C85.0346 29.3967 84.9946 29.5033 84.9546 29.63C84.8813 29.8233 84.808 29.9533 84.7346 30.02C84.668 30.08 84.568 30.11 84.4346 30.11C84.1013 30.11 83.9346 29.9433 83.9346 29.61C83.9346 29.29 84.1046 29.0433 84.4446 28.87C84.7846 28.69 85.268 28.6 85.8946 28.6C86.5613 28.6 87.0346 28.72 87.3146 28.96C87.5946 29.1933 87.7346 29.5933 87.7346 30.16V32.4C87.7346 33.16 87.8846 33.54 88.1846 33.54C88.278 33.54 88.368 33.53 88.4546 33.51C88.5413 33.4833 88.6146 33.42 88.6746 33.32L88.8146 33.56C88.7346 33.7133 88.588 33.8433 88.3746 33.95C88.1613 34.05 87.938 34.1 87.7046 34.1C87.4113 34.1 87.1913 34.0067 87.0446 33.82C86.9046 33.6333 86.8346 33.37 86.8346 33.03H86.7846C86.6113 33.3567 86.3713 33.6167 86.0646 33.81C85.758 33.9967 85.418 34.09 85.0446 34.09C84.6246 34.09 84.2946 33.9833 84.0546 33.77C83.8146 33.5567 83.6946 33.27 83.6946 32.91C83.6946 32.75 83.7213 32.5967 83.7746 32.45C83.8346 32.3033 83.928 32.1633 84.0546 32.03C84.1813 31.8967 84.348 31.7667 84.5546 31.64C84.7613 31.5067 85.0146 31.3733 85.3146 31.24L86.7546 30.61ZM90.8918 32.44C90.8918 32.6933 90.9018 32.8967 90.9218 33.05C90.9418 33.2033 90.9818 33.3233 91.0418 33.41C91.1084 33.4967 91.1984 33.5567 91.3118 33.59C91.4318 33.6233 91.5884 33.6433 91.7818 33.65V34H89.0218V33.65C89.2218 33.6433 89.3818 33.6233 89.5018 33.59C89.6218 33.55 89.7151 33.49 89.7818 33.41C89.8551 33.33 89.9018 33.22 89.9218 33.08C89.9484 32.9333 89.9618 32.7433 89.9618 32.51V28.2C89.9618 27.84 89.9551 27.54 89.9418 27.3C89.9351 27.0533 89.9218 26.8867 89.9018 26.8C89.8684 26.6467 89.7884 26.5433 89.6618 26.49C89.5418 26.4367 89.3218 26.41 89.0018 26.41V26.07L90.8918 25.7V32.44ZM97.2737 33.07C96.707 33.7567 96.0037 34.1 95.1637 34.1C94.7704 34.1 94.4137 34.0367 94.0937 33.91C93.7737 33.7767 93.497 33.5933 93.2637 33.36C93.037 33.12 92.8604 32.8367 92.7337 32.51C92.607 32.1767 92.5437 31.81 92.5437 31.41C92.5437 31.0033 92.6104 30.6267 92.7437 30.28C92.877 29.9333 93.0637 29.6367 93.3037 29.39C93.5504 29.1433 93.8404 28.95 94.1737 28.81C94.5137 28.67 94.8837 28.6 95.2837 28.6C95.9304 28.6 96.4304 28.7767 96.7837 29.13C97.137 29.4767 97.3137 29.9767 97.3137 30.63C97.3137 30.7233 97.2937 30.78 97.2537 30.8C97.2204 30.82 97.137 30.83 97.0037 30.83H93.7137C93.7004 30.8833 93.6904 30.95 93.6837 31.03C93.677 31.1033 93.6737 31.1867 93.6737 31.28C93.6737 31.6267 93.7137 31.9433 93.7937 32.23C93.8804 32.51 94.0004 32.75 94.1537 32.95C94.3137 33.15 94.5004 33.3067 94.7137 33.42C94.9337 33.5267 95.177 33.58 95.4437 33.58C95.7237 33.58 95.9837 33.52 96.2237 33.4C96.4637 33.2733 96.7104 33.07 96.9637 32.79L97.2737 33.07ZM95.6237 30.37C95.757 30.37 95.8637 30.3667 95.9437 30.36C96.0237 30.3533 96.0837 30.34 96.1237 30.32C96.1637 30.3 96.1904 30.2733 96.2037 30.24C96.217 30.2 96.2237 30.15 96.2237 30.09C96.2237 29.7833 96.1237 29.54 95.9237 29.36C95.7304 29.1733 95.4637 29.08 95.1237 29.08C94.4037 29.08 93.957 29.51 93.7837 30.37H95.6237ZM98.6461 34H98.4261V32.28H98.6761C98.9361 33.22 99.4095 33.69 100.096 33.69C100.363 33.69 100.573 33.6267 100.726 33.5C100.886 33.3667 100.966 33.1667 100.966 32.9C100.966 32.8 100.949 32.7167 100.916 32.65C100.889 32.5767 100.833 32.5033 100.746 32.43C100.666 32.35 100.549 32.26 100.396 32.16C100.249 32.06 100.053 31.9333 99.8061 31.78C99.5795 31.64 99.3828 31.51 99.2161 31.39C99.0495 31.27 98.9095 31.15 98.7961 31.03C98.6828 30.9033 98.5961 30.77 98.5361 30.63C98.4828 30.49 98.4561 30.3267 98.4561 30.14C98.4561 29.9133 98.4928 29.7067 98.5661 29.52C98.6461 29.3267 98.7528 29.1633 98.8861 29.03C99.0195 28.8967 99.1761 28.7933 99.3561 28.72C99.5361 28.64 99.7328 28.6 99.9461 28.6C100.126 28.6 100.313 28.63 100.506 28.69C100.699 28.7433 100.869 28.8167 101.016 28.91L101.216 28.7H101.406V30.14H101.146C100.999 29.7333 100.839 29.4433 100.666 29.27C100.493 29.0967 100.279 29.01 100.026 29.01C99.7995 29.01 99.6161 29.07 99.4761 29.19C99.3428 29.31 99.2761 29.4767 99.2761 29.69C99.2761 29.8033 99.2928 29.9033 99.3261 29.99C99.3661 30.07 99.4261 30.15 99.5061 30.23C99.5861 30.31 99.6861 30.3933 99.8061 30.48C99.9328 30.56 100.083 30.6533 100.256 30.76C100.543 30.94 100.786 31.1 100.986 31.24C101.193 31.38 101.359 31.52 101.486 31.66C101.613 31.7933 101.706 31.9333 101.766 32.08C101.826 32.2267 101.856 32.3933 101.856 32.58C101.856 33.0533 101.703 33.4267 101.396 33.7C101.089 33.9667 100.686 34.1 100.186 34.1C99.6661 34.1 99.2195 33.95 98.8461 33.65L98.6461 34ZM105.418 28.86H106.548V28.14C106.548 27.3733 106.748 26.7767 107.148 26.35C107.555 25.9167 108.132 25.7 108.878 25.7C109.292 25.7 109.628 25.7633 109.888 25.89C110.148 26.0167 110.278 26.18 110.278 26.38C110.278 26.5133 110.235 26.6267 110.148 26.72C110.068 26.8067 109.965 26.85 109.838 26.85C109.758 26.85 109.672 26.8267 109.578 26.78C109.492 26.7267 109.375 26.64 109.228 26.52C109.062 26.38 108.932 26.29 108.838 26.25C108.745 26.2033 108.635 26.18 108.508 26.18C108.108 26.18 107.822 26.3833 107.648 26.79C107.588 26.9233 107.545 27.0867 107.518 27.28C107.498 27.4733 107.488 27.74 107.488 28.08V28.86H109.098V29.33H107.488V32.39C107.488 32.6367 107.502 32.84 107.528 33C107.562 33.16 107.615 33.29 107.688 33.39C107.768 33.4833 107.875 33.55 108.008 33.59C108.142 33.6233 108.315 33.6433 108.528 33.65V34H105.688V33.65C105.875 33.6433 106.025 33.6267 106.138 33.6C106.252 33.5667 106.338 33.51 106.398 33.43C106.458 33.3433 106.498 33.2267 106.518 33.08C106.538 32.9267 106.548 32.7233 106.548 32.47V29.33H105.418V28.86ZM112.452 28.6C112.832 28.6 113.192 28.67 113.532 28.81C113.872 28.9433 114.169 29.13 114.422 29.37C114.682 29.61 114.885 29.8967 115.032 30.23C115.185 30.5567 115.262 30.9167 115.262 31.31C115.262 31.7167 115.185 32.09 115.032 32.43C114.885 32.77 114.682 33.0633 114.422 33.31C114.169 33.5567 113.872 33.75 113.532 33.89C113.192 34.03 112.832 34.1 112.452 34.1C112.079 34.1 111.722 34.0333 111.382 33.9C111.049 33.76 110.755 33.5667 110.502 33.32C110.249 33.0733 110.049 32.78 109.902 32.44C109.755 32.0933 109.682 31.7167 109.682 31.31C109.682 30.9167 109.755 30.5533 109.902 30.22C110.049 29.8867 110.249 29.6 110.502 29.36C110.755 29.12 111.049 28.9333 111.382 28.8C111.722 28.6667 112.079 28.6 112.452 28.6ZM112.452 29.08C112.205 29.08 111.979 29.1333 111.772 29.24C111.572 29.3467 111.399 29.5 111.252 29.7C111.112 29.8933 111.002 30.13 110.922 30.41C110.849 30.6833 110.812 30.9867 110.812 31.32C110.812 31.6667 110.849 31.98 110.922 32.26C111.002 32.54 111.112 32.78 111.252 32.98C111.399 33.1733 111.572 33.3233 111.772 33.43C111.972 33.5367 112.199 33.59 112.452 33.59C112.705 33.59 112.935 33.5367 113.142 33.43C113.349 33.3233 113.525 33.17 113.672 32.97C113.819 32.77 113.932 32.53 114.012 32.25C114.092 31.97 114.132 31.66 114.132 31.32C114.132 30.9867 114.092 30.6833 114.012 30.41C113.932 30.1367 113.819 29.9033 113.672 29.71C113.525 29.51 113.349 29.3567 113.142 29.25C112.935 29.1367 112.705 29.08 112.452 29.08ZM117.965 32.41C117.965 32.6833 117.972 32.9 117.985 33.06C117.998 33.22 118.032 33.3433 118.085 33.43C118.145 33.51 118.228 33.5633 118.335 33.59C118.442 33.6167 118.592 33.6367 118.785 33.65V34H116.125V33.65C116.318 33.6433 116.472 33.6267 116.585 33.6C116.698 33.5667 116.785 33.51 116.845 33.43C116.905 33.35 116.942 33.2367 116.955 33.09C116.975 32.9367 116.985 32.7333 116.985 32.48V31.31C116.985 30.8567 116.978 30.5033 116.965 30.25C116.958 29.9967 116.925 29.81 116.865 29.69C116.812 29.57 116.725 29.5 116.605 29.48C116.485 29.4533 116.318 29.44 116.105 29.44V29.09L117.855 28.71L117.995 29.95H118.035C118.122 29.75 118.228 29.5667 118.355 29.4C118.488 29.2333 118.632 29.0933 118.785 28.98C118.938 28.86 119.098 28.7667 119.265 28.7C119.432 28.6333 119.602 28.6 119.775 28.6C119.988 28.6 120.155 28.6533 120.275 28.76C120.402 28.86 120.465 28.9967 120.465 29.17C120.465 29.33 120.415 29.4567 120.315 29.55C120.215 29.6367 120.072 29.68 119.885 29.68C119.778 29.68 119.688 29.6667 119.615 29.64C119.542 29.6133 119.475 29.5867 119.415 29.56C119.362 29.5267 119.308 29.4967 119.255 29.47C119.208 29.4433 119.155 29.43 119.095 29.43C118.915 29.43 118.735 29.5467 118.555 29.78C118.375 30.0067 118.235 30.2967 118.135 30.65C118.082 30.8433 118.038 31.0633 118.005 31.31C117.978 31.55 117.965 31.8033 117.965 32.07V32.41ZM123.498 34V33.62C123.751 33.6133 123.955 33.5967 124.108 33.57C124.268 33.5367 124.391 33.48 124.478 33.4C124.565 33.3133 124.621 33.2 124.648 33.06C124.681 32.9133 124.698 32.72 124.698 32.48V27.82C124.698 27.5867 124.685 27.4 124.658 27.26C124.638 27.1133 124.591 27 124.518 26.92C124.451 26.8333 124.351 26.7767 124.218 26.75C124.085 26.7167 123.911 26.6933 123.698 26.68V26.3H127.208C127.808 26.3 128.361 26.4 128.868 26.6C129.381 26.8 129.821 27.0767 130.188 27.43C130.561 27.7833 130.851 28.2033 131.058 28.69C131.265 29.1767 131.368 29.7067 131.368 30.28C131.368 30.8267 131.271 31.33 131.078 31.79C130.885 32.2433 130.611 32.6333 130.258 32.96C129.911 33.2867 129.495 33.5433 129.008 33.73C128.521 33.91 127.988 34 127.408 34H123.498ZM125.918 26.79C125.805 26.79 125.748 26.8467 125.748 26.96V32.37C125.748 33.13 126.245 33.51 127.238 33.51C128.151 33.51 128.851 33.24 129.338 32.7C129.825 32.1533 130.068 31.3533 130.068 30.3C130.068 29.7467 130.001 29.2533 129.868 28.82C129.735 28.3867 129.541 28.02 129.288 27.72C129.041 27.42 128.741 27.19 128.388 27.03C128.035 26.87 127.635 26.79 127.188 26.79H125.918ZM134.176 32.41C134.176 32.6833 134.183 32.9 134.196 33.06C134.209 33.22 134.243 33.3433 134.296 33.43C134.356 33.51 134.439 33.5633 134.546 33.59C134.653 33.6167 134.803 33.6367 134.996 33.65V34H132.336V33.65C132.529 33.6433 132.683 33.6267 132.796 33.6C132.909 33.5667 132.996 33.51 133.056 33.43C133.116 33.35 133.153 33.2367 133.166 33.09C133.186 32.9367 133.196 32.7333 133.196 32.48V31.31C133.196 30.8567 133.189 30.5033 133.176 30.25C133.169 29.9967 133.136 29.81 133.076 29.69C133.023 29.57 132.936 29.5 132.816 29.48C132.696 29.4533 132.529 29.44 132.316 29.44V29.09L134.066 28.71L134.206 29.95H134.246C134.333 29.75 134.439 29.5667 134.566 29.4C134.699 29.2333 134.843 29.0933 134.996 28.98C135.149 28.86 135.309 28.7667 135.476 28.7C135.643 28.6333 135.813 28.6 135.986 28.6C136.199 28.6 136.366 28.6533 136.486 28.76C136.613 28.86 136.676 28.9967 136.676 29.17C136.676 29.33 136.626 29.4567 136.526 29.55C136.426 29.6367 136.283 29.68 136.096 29.68C135.989 29.68 135.899 29.6667 135.826 29.64C135.753 29.6133 135.686 29.5867 135.626 29.56C135.573 29.5267 135.519 29.4967 135.466 29.47C135.419 29.4433 135.366 29.43 135.306 29.43C135.126 29.43 134.946 29.5467 134.766 29.78C134.586 30.0067 134.446 30.2967 134.346 30.65C134.293 30.8433 134.249 31.0633 134.216 31.31C134.189 31.55 134.176 31.8033 134.176 32.07V32.41ZM141.834 33.07C141.268 33.7567 140.564 34.1 139.724 34.1C139.331 34.1 138.974 34.0367 138.654 33.91C138.334 33.7767 138.058 33.5933 137.824 33.36C137.598 33.12 137.421 32.8367 137.294 32.51C137.168 32.1767 137.104 31.81 137.104 31.41C137.104 31.0033 137.171 30.6267 137.304 30.28C137.438 29.9333 137.624 29.6367 137.864 29.39C138.111 29.1433 138.401 28.95 138.734 28.81C139.074 28.67 139.444 28.6 139.844 28.6C140.491 28.6 140.991 28.7767 141.344 29.13C141.698 29.4767 141.874 29.9767 141.874 30.63C141.874 30.7233 141.854 30.78 141.814 30.8C141.781 30.82 141.698 30.83 141.564 30.83H138.274C138.261 30.8833 138.251 30.95 138.244 31.03C138.238 31.1033 138.234 31.1867 138.234 31.28C138.234 31.6267 138.274 31.9433 138.354 32.23C138.441 32.51 138.561 32.75 138.714 32.95C138.874 33.15 139.061 33.3067 139.274 33.42C139.494 33.5267 139.738 33.58 140.004 33.58C140.284 33.58 140.544 33.52 140.784 33.4C141.024 33.2733 141.271 33.07 141.524 32.79L141.834 33.07ZM140.184 30.37C140.318 30.37 140.424 30.3667 140.504 30.36C140.584 30.3533 140.644 30.34 140.684 30.32C140.724 30.3 140.751 30.2733 140.764 30.24C140.778 30.2 140.784 30.15 140.784 30.09C140.784 29.7833 140.684 29.54 140.484 29.36C140.291 29.1733 140.024 29.08 139.684 29.08C138.964 29.08 138.518 29.51 138.344 30.37H140.184ZM145.837 31.04C145.457 31.1867 145.133 31.33 144.867 31.47C144.607 31.61 144.397 31.75 144.237 31.89C144.077 32.03 143.96 32.17 143.887 32.31C143.82 32.45 143.787 32.5933 143.787 32.74C143.787 32.96 143.86 33.14 144.007 33.28C144.153 33.42 144.347 33.49 144.587 33.49C144.76 33.49 144.92 33.4467 145.067 33.36C145.22 33.2733 145.353 33.1567 145.467 33.01C145.58 32.8567 145.67 32.68 145.737 32.48C145.803 32.2733 145.837 32.0567 145.837 31.83V31.04ZM145.837 30.61V30.2C145.837 29.3867 145.49 28.98 144.797 28.98C144.683 28.98 144.587 28.99 144.507 29.01C144.427 29.03 144.36 29.0633 144.307 29.11C144.253 29.1567 144.203 29.2233 144.157 29.31C144.117 29.3967 144.077 29.5033 144.037 29.63C143.963 29.8233 143.89 29.9533 143.817 30.02C143.75 30.08 143.65 30.11 143.517 30.11C143.183 30.11 143.017 29.9433 143.017 29.61C143.017 29.29 143.187 29.0433 143.527 28.87C143.867 28.69 144.35 28.6 144.977 28.6C145.643 28.6 146.117 28.72 146.397 28.96C146.677 29.1933 146.817 29.5933 146.817 30.16V32.4C146.817 33.16 146.967 33.54 147.267 33.54C147.36 33.54 147.45 33.53 147.537 33.51C147.623 33.4833 147.697 33.42 147.757 33.32L147.897 33.56C147.817 33.7133 147.67 33.8433 147.457 33.95C147.243 34.05 147.02 34.1 146.787 34.1C146.493 34.1 146.273 34.0067 146.127 33.82C145.987 33.6333 145.917 33.37 145.917 33.03H145.867C145.693 33.3567 145.453 33.6167 145.147 33.81C144.84 33.9967 144.5 34.09 144.127 34.09C143.707 34.09 143.377 33.9833 143.137 33.77C142.897 33.5567 142.777 33.27 142.777 32.91C142.777 32.75 142.803 32.5967 142.857 32.45C142.917 32.3033 143.01 32.1633 143.137 32.03C143.263 31.8967 143.43 31.7667 143.637 31.64C143.843 31.5067 144.097 31.3733 144.397 31.24L145.837 30.61ZM150.094 32.4C150.094 32.68 150.1 32.9 150.114 33.06C150.127 33.22 150.16 33.3433 150.214 33.43C150.274 33.51 150.357 33.5633 150.464 33.59C150.57 33.6167 150.72 33.6367 150.914 33.65V34H148.254V33.65C148.447 33.6367 148.6 33.6167 148.714 33.59C148.827 33.5633 148.914 33.51 148.974 33.43C149.034 33.35 149.07 33.2367 149.084 33.09C149.104 32.9367 149.114 32.7333 149.114 32.48V31.2C149.114 30.82 149.107 30.5033 149.094 30.25C149.087 29.9967 149.07 29.8233 149.044 29.73C149.024 29.6433 149 29.5767 148.974 29.53C148.947 29.4767 148.904 29.4367 148.844 29.41C148.784 29.3767 148.704 29.3567 148.604 29.35C148.51 29.3367 148.387 29.33 148.234 29.33V28.98L149.864 28.6L149.994 29.6H150.044C150.344 29.26 150.657 29.01 150.984 28.85C151.317 28.6833 151.684 28.6 152.084 28.6C152.504 28.6 152.857 28.6867 153.144 28.86C153.43 29.0267 153.63 29.27 153.744 29.59H153.784C154.03 29.2767 154.33 29.0333 154.684 28.86C155.037 28.6867 155.414 28.6 155.814 28.6C156.127 28.6 156.41 28.6533 156.664 28.76C156.924 28.86 157.12 29 157.254 29.18C157.374 29.3333 157.457 29.5367 157.504 29.79C157.557 30.0367 157.584 30.3767 157.584 30.81V32.4C157.584 32.6733 157.59 32.89 157.604 33.05C157.624 33.21 157.66 33.3333 157.714 33.42C157.767 33.5067 157.847 33.5633 157.954 33.59C158.067 33.6167 158.22 33.6367 158.414 33.65V34H155.754V33.65C155.94 33.6433 156.09 33.6267 156.204 33.6C156.317 33.5667 156.404 33.51 156.464 33.43C156.524 33.3433 156.56 33.2267 156.574 33.08C156.594 32.9333 156.604 32.7333 156.604 32.48V31.22C156.604 30.84 156.584 30.52 156.544 30.26C156.504 29.9933 156.437 29.78 156.344 29.62C156.25 29.4533 156.127 29.3333 155.974 29.26C155.827 29.1867 155.647 29.15 155.434 29.15C155.14 29.15 154.864 29.2333 154.604 29.4C154.35 29.56 154.15 29.7767 154.004 30.05C153.97 30.1167 153.94 30.1833 153.914 30.25C153.894 30.31 153.877 30.38 153.864 30.46C153.85 30.5333 153.84 30.6233 153.834 30.73C153.834 30.8367 153.834 30.97 153.834 31.13V32.4C153.834 32.6733 153.84 32.89 153.854 33.05C153.867 33.21 153.9 33.3333 153.954 33.42C154.014 33.5067 154.1 33.5633 154.214 33.59C154.327 33.6167 154.48 33.6367 154.674 33.65V34H152.014V33.65C152.2 33.6367 152.35 33.6167 152.464 33.59C152.577 33.5633 152.66 33.51 152.714 33.43C152.774 33.35 152.81 33.2367 152.824 33.09C152.844 32.9367 152.854 32.7333 152.854 32.48V31.22C152.854 30.8333 152.834 30.51 152.794 30.25C152.754 29.9833 152.687 29.77 152.594 29.61C152.507 29.4433 152.39 29.3267 152.244 29.26C152.097 29.1867 151.917 29.15 151.704 29.15C151.404 29.15 151.12 29.2333 150.854 29.4C150.594 29.56 150.397 29.7767 150.264 30.05C150.23 30.1167 150.2 30.1833 150.174 30.25C150.154 30.31 150.137 30.38 150.124 30.46C150.11 30.5333 150.1 30.6233 150.094 30.73C150.094 30.8367 150.094 30.97 150.094 31.13V32.4ZM159.476 34H159.256V32.28H159.506C159.766 33.22 160.24 33.69 160.926 33.69C161.193 33.69 161.403 33.6267 161.556 33.5C161.716 33.3667 161.796 33.1667 161.796 32.9C161.796 32.8 161.78 32.7167 161.746 32.65C161.72 32.5767 161.663 32.5033 161.576 32.43C161.496 32.35 161.38 32.26 161.226 32.16C161.08 32.06 160.883 31.9333 160.636 31.78C160.41 31.64 160.213 31.51 160.046 31.39C159.88 31.27 159.74 31.15 159.626 31.03C159.513 30.9033 159.426 30.77 159.366 30.63C159.313 30.49 159.286 30.3267 159.286 30.14C159.286 29.9133 159.323 29.7067 159.396 29.52C159.476 29.3267 159.583 29.1633 159.716 29.03C159.85 28.8967 160.006 28.7933 160.186 28.72C160.366 28.64 160.563 28.6 160.776 28.6C160.956 28.6 161.143 28.63 161.336 28.69C161.53 28.7433 161.7 28.8167 161.846 28.91L162.046 28.7H162.236V30.14H161.976C161.83 29.7333 161.67 29.4433 161.496 29.27C161.323 29.0967 161.11 29.01 160.856 29.01C160.63 29.01 160.446 29.07 160.306 29.19C160.173 29.31 160.106 29.4767 160.106 29.69C160.106 29.8033 160.123 29.9033 160.156 29.99C160.196 30.07 160.256 30.15 160.336 30.23C160.416 30.31 160.516 30.3933 160.636 30.48C160.763 30.56 160.913 30.6533 161.086 30.76C161.373 30.94 161.616 31.1 161.816 31.24C162.023 31.38 162.19 31.52 162.316 31.66C162.443 31.7933 162.536 31.9333 162.596 32.08C162.656 32.2267 162.686 32.3933 162.686 32.58C162.686 33.0533 162.533 33.4267 162.226 33.7C161.92 33.9667 161.516 34.1 161.016 34.1C160.496 34.1 160.05 33.95 159.676 33.65L159.476 34ZM69.4068 41.33V40.96C69.7602 40.7533 70.0368 40.5467 70.2368 40.34C70.4368 40.1333 70.5902 39.8867 70.6968 39.6H70.9868V40.86H72.3268V41.33H70.9868V44.37C70.9868 44.6033 70.9968 44.8 71.0168 44.96C71.0435 45.12 71.0835 45.25 71.1368 45.35C71.1902 45.4433 71.2602 45.51 71.3468 45.55C71.4335 45.59 71.5435 45.61 71.6768 45.61C71.8435 45.61 71.9835 45.5767 72.0968 45.51C72.2168 45.4367 72.3335 45.3167 72.4468 45.15L72.6968 45.34C72.6035 45.5867 72.4402 45.7767 72.2068 45.91C71.9802 46.0367 71.6968 46.1 71.3568 46.1C70.9168 46.1 70.5802 45.9967 70.3468 45.79C70.1202 45.5767 70.0068 45.2733 70.0068 44.88V41.33H69.4068ZM76.0361 40.6C76.4161 40.6 76.7761 40.67 77.1161 40.81C77.4561 40.9433 77.7528 41.13 78.0061 41.37C78.2661 41.61 78.4695 41.8967 78.6161 42.23C78.7695 42.5567 78.8461 42.9167 78.8461 43.31C78.8461 43.7167 78.7695 44.09 78.6161 44.43C78.4695 44.77 78.2661 45.0633 78.0061 45.31C77.7528 45.5567 77.4561 45.75 77.1161 45.89C76.7761 46.03 76.4161 46.1 76.0361 46.1C75.6628 46.1 75.3061 46.0333 74.9661 45.9C74.6328 45.76 74.3395 45.5667 74.0861 45.32C73.8328 45.0733 73.6328 44.78 73.4861 44.44C73.3395 44.0933 73.2661 43.7167 73.2661 43.31C73.2661 42.9167 73.3395 42.5533 73.4861 42.22C73.6328 41.8867 73.8328 41.6 74.0861 41.36C74.3395 41.12 74.6328 40.9333 74.9661 40.8C75.3061 40.6667 75.6628 40.6 76.0361 40.6ZM76.0361 41.08C75.7895 41.08 75.5628 41.1333 75.3561 41.24C75.1561 41.3467 74.9828 41.5 74.8361 41.7C74.6961 41.8933 74.5861 42.13 74.5061 42.41C74.4328 42.6833 74.3961 42.9867 74.3961 43.32C74.3961 43.6667 74.4328 43.98 74.5061 44.26C74.5861 44.54 74.6961 44.78 74.8361 44.98C74.9828 45.1733 75.1561 45.3233 75.3561 45.43C75.5561 45.5367 75.7828 45.59 76.0361 45.59C76.2895 45.59 76.5195 45.5367 76.7261 45.43C76.9328 45.3233 77.1095 45.17 77.2561 44.97C77.4028 44.77 77.5161 44.53 77.5961 44.25C77.6761 43.97 77.7161 43.66 77.7161 43.32C77.7161 42.9867 77.6761 42.6833 77.5961 42.41C77.5161 42.1367 77.4028 41.9033 77.2561 41.71C77.1095 41.51 76.9328 41.3567 76.7261 41.25C76.5195 41.1367 76.2895 41.08 76.0361 41.08ZM84.8002 44.41C84.8002 44.6633 84.8135 44.87 84.8402 45.03C84.8735 45.1833 84.9402 45.3033 85.0402 45.39C85.1402 45.47 85.2802 45.5267 85.4602 45.56C85.6469 45.5933 85.8902 45.6133 86.1902 45.62V46H82.6502V45.62C82.8835 45.6133 83.0702 45.5933 83.2102 45.56C83.3569 45.5267 83.4702 45.47 83.5502 45.39C83.6302 45.31 83.6835 45.1967 83.7102 45.05C83.7369 44.9033 83.7502 44.7133 83.7502 44.48V39.82C83.7502 39.5867 83.7369 39.4 83.7102 39.26C83.6902 39.1133 83.6435 39 83.5702 38.92C83.5035 38.8333 83.4035 38.7767 83.2702 38.75C83.1369 38.7167 82.9635 38.6933 82.7502 38.68V38.3H88.5302L88.6402 40.21H88.2902C88.2502 39.9233 88.1869 39.69 88.1002 39.51C88.0135 39.3233 87.8902 39.1767 87.7302 39.07C87.5769 38.9633 87.3802 38.89 87.1402 38.85C86.9002 38.8033 86.6002 38.78 86.2402 38.78H84.9702C84.8569 38.78 84.8002 38.8367 84.8002 38.95V41.97C85.1202 41.97 85.3935 41.9533 85.6202 41.92C85.8535 41.88 86.0435 41.8133 86.1902 41.72C86.3435 41.6267 86.4602 41.5 86.5402 41.34C86.6202 41.18 86.6702 40.9733 86.6902 40.72H87.0402V43.65H86.6902C86.6569 43.3967 86.6035 43.1867 86.5302 43.02C86.4569 42.8533 86.3469 42.7233 86.2002 42.63C86.0602 42.5367 85.8769 42.47 85.6502 42.43C85.4235 42.39 85.1402 42.37 84.8002 42.37V44.41ZM90.9894 44.44C90.9894 44.6933 90.9994 44.8967 91.0194 45.05C91.0394 45.2033 91.0794 45.3233 91.1394 45.41C91.2061 45.4967 91.2961 45.5567 91.4094 45.59C91.5294 45.6233 91.6861 45.6433 91.8794 45.65V46H89.1194V45.65C89.3194 45.6433 89.4794 45.6233 89.5994 45.59C89.7194 45.55 89.8127 45.49 89.8794 45.41C89.9527 45.33 89.9994 45.22 90.0194 45.08C90.0461 44.9333 90.0594 44.7433 90.0594 44.51V40.2C90.0594 39.84 90.0527 39.54 90.0394 39.3C90.0327 39.0533 90.0194 38.8867 89.9994 38.8C89.9661 38.6467 89.8861 38.5433 89.7594 38.49C89.6394 38.4367 89.4194 38.41 89.0994 38.41V38.07L90.9894 37.7V44.44ZM95.4014 40.6C95.7814 40.6 96.1414 40.67 96.4814 40.81C96.8214 40.9433 97.118 41.13 97.3714 41.37C97.6314 41.61 97.8347 41.8967 97.9814 42.23C98.1347 42.5567 98.2114 42.9167 98.2114 43.31C98.2114 43.7167 98.1347 44.09 97.9814 44.43C97.8347 44.77 97.6314 45.0633 97.3714 45.31C97.118 45.5567 96.8214 45.75 96.4814 45.89C96.1414 46.03 95.7814 46.1 95.4014 46.1C95.028 46.1 94.6714 46.0333 94.3314 45.9C93.998 45.76 93.7047 45.5667 93.4514 45.32C93.198 45.0733 92.998 44.78 92.8514 44.44C92.7047 44.0933 92.6314 43.7167 92.6314 43.31C92.6314 42.9167 92.7047 42.5533 92.8514 42.22C92.998 41.8867 93.198 41.6 93.4514 41.36C93.7047 41.12 93.998 40.9333 94.3314 40.8C94.6714 40.6667 95.028 40.6 95.4014 40.6ZM95.4014 41.08C95.1547 41.08 94.928 41.1333 94.7214 41.24C94.5214 41.3467 94.348 41.5 94.2014 41.7C94.0614 41.8933 93.9514 42.13 93.8714 42.41C93.798 42.6833 93.7614 42.9867 93.7614 43.32C93.7614 43.6667 93.798 43.98 93.8714 44.26C93.9514 44.54 94.0614 44.78 94.2014 44.98C94.348 45.1733 94.5214 45.3233 94.7214 45.43C94.9214 45.5367 95.148 45.59 95.4014 45.59C95.6547 45.59 95.8847 45.5367 96.0914 45.43C96.298 45.3233 96.4747 45.17 96.6214 44.97C96.768 44.77 96.8814 44.53 96.9614 44.25C97.0414 43.97 97.0814 43.66 97.0814 43.32C97.0814 42.9867 97.0414 42.6833 96.9614 42.41C96.8814 42.1367 96.768 41.9033 96.6214 41.71C96.4747 41.51 96.298 41.3567 96.0914 41.25C95.8847 41.1367 95.6547 41.08 95.4014 41.08ZM103.324 42.3C103.324 42.0267 103.318 41.8133 103.304 41.66C103.291 41.5 103.254 41.38 103.194 41.3C103.141 41.2133 103.058 41.1567 102.944 41.13C102.838 41.0967 102.688 41.07 102.494 41.05V40.7H104.304V43.77C104.304 44.15 104.308 44.46 104.314 44.7C104.328 44.94 104.344 45.12 104.364 45.24C104.378 45.3267 104.398 45.3967 104.424 45.45C104.458 45.4967 104.504 45.5367 104.564 45.57C104.624 45.5967 104.701 45.6167 104.794 45.63C104.894 45.6367 105.021 45.64 105.174 45.64V45.99L103.524 46.11L103.414 44.91H103.374C103.121 45.3233 102.828 45.6267 102.494 45.82C102.168 46.0067 101.824 46.1 101.464 46.1C101.184 46.1 100.911 46.0467 100.644 45.94C100.384 45.8333 100.188 45.69 100.054 45.51C99.941 45.3633 99.8577 45.16 99.8043 44.9C99.7577 44.64 99.7343 44.3033 99.7343 43.89V42.3C99.7343 42.0267 99.7277 41.8133 99.7143 41.66C99.701 41.5 99.6643 41.38 99.6043 41.3C99.551 41.2133 99.4677 41.1567 99.3543 41.13C99.2477 41.0967 99.0977 41.07 98.9043 41.05V40.7H100.714V43.43C100.714 44.1567 100.798 44.6833 100.964 45.01C101.138 45.3367 101.411 45.5 101.784 45.5C102.371 45.5 102.828 45.1167 103.154 44.35C103.188 44.27 103.214 44.1967 103.234 44.13C103.254 44.0633 103.271 43.99 103.284 43.91C103.298 43.83 103.308 43.74 103.314 43.64C103.321 43.54 103.324 43.42 103.324 43.28V42.3ZM107.614 44.41C107.614 44.6833 107.62 44.9 107.634 45.06C107.647 45.22 107.68 45.3433 107.734 45.43C107.794 45.51 107.877 45.5633 107.984 45.59C108.09 45.6167 108.24 45.6367 108.434 45.65V46H105.774V45.65C105.967 45.6433 106.12 45.6267 106.234 45.6C106.347 45.5667 106.434 45.51 106.494 45.43C106.554 45.35 106.59 45.2367 106.604 45.09C106.624 44.9367 106.634 44.7333 106.634 44.48V43.31C106.634 42.8567 106.627 42.5033 106.614 42.25C106.607 41.9967 106.574 41.81 106.514 41.69C106.46 41.57 106.374 41.5 106.254 41.48C106.134 41.4533 105.967 41.44 105.754 41.44V41.09L107.504 40.71L107.644 41.95H107.684C107.77 41.75 107.877 41.5667 108.004 41.4C108.137 41.2333 108.28 41.0933 108.434 40.98C108.587 40.86 108.747 40.7667 108.914 40.7C109.08 40.6333 109.25 40.6 109.424 40.6C109.637 40.6 109.804 40.6533 109.924 40.76C110.05 40.86 110.114 40.9967 110.114 41.17C110.114 41.33 110.064 41.4567 109.964 41.55C109.864 41.6367 109.72 41.68 109.534 41.68C109.427 41.68 109.337 41.6667 109.264 41.64C109.19 41.6133 109.124 41.5867 109.064 41.56C109.01 41.5267 108.957 41.4967 108.904 41.47C108.857 41.4433 108.804 41.43 108.744 41.43C108.564 41.43 108.384 41.5467 108.204 41.78C108.024 42.0067 107.884 42.2967 107.784 42.65C107.73 42.8433 107.687 43.0633 107.654 43.31C107.627 43.55 107.614 43.8033 107.614 44.07V44.41ZM112.439 44.41C112.439 44.67 112.449 44.88 112.469 45.04C112.496 45.1933 112.543 45.3167 112.609 45.41C112.676 45.4967 112.769 45.5567 112.889 45.59C113.009 45.6233 113.169 45.6433 113.369 45.65V46H110.499V45.65C110.699 45.6433 110.863 45.6233 110.989 45.59C111.116 45.55 111.213 45.49 111.279 45.41C111.353 45.3233 111.399 45.2067 111.419 45.06C111.446 44.9067 111.459 44.7133 111.459 44.48V43.2C111.459 42.8133 111.453 42.4967 111.439 42.25C111.433 41.9967 111.416 41.8233 111.389 41.73C111.356 41.5767 111.279 41.4733 111.159 41.42C111.039 41.36 110.813 41.33 110.479 41.33V40.98L112.439 40.6V44.41ZM111.289 38.57C111.289 38.3967 111.349 38.25 111.469 38.13C111.589 38.01 111.736 37.95 111.909 37.95C112.083 37.95 112.229 38.01 112.349 38.13C112.469 38.25 112.529 38.3967 112.529 38.57C112.529 38.7433 112.469 38.89 112.349 39.01C112.229 39.13 112.083 39.19 111.909 39.19C111.736 39.19 111.589 39.13 111.469 39.01C111.349 38.89 111.289 38.7433 111.289 38.57ZM114.427 46H114.207V44.28H114.457C114.717 45.22 115.191 45.69 115.877 45.69C116.144 45.69 116.354 45.6267 116.507 45.5C116.667 45.3667 116.747 45.1667 116.747 44.9C116.747 44.8 116.731 44.7167 116.697 44.65C116.671 44.5767 116.614 44.5033 116.527 44.43C116.447 44.35 116.331 44.26 116.177 44.16C116.031 44.06 115.834 43.9333 115.587 43.78C115.361 43.64 115.164 43.51 114.997 43.39C114.831 43.27 114.691 43.15 114.577 43.03C114.464 42.9033 114.377 42.77 114.317 42.63C114.264 42.49 114.237 42.3267 114.237 42.14C114.237 41.9133 114.274 41.7067 114.347 41.52C114.427 41.3267 114.534 41.1633 114.667 41.03C114.801 40.8967 114.957 40.7933 115.137 40.72C115.317 40.64 115.514 40.6 115.727 40.6C115.907 40.6 116.094 40.63 116.287 40.69C116.481 40.7433 116.651 40.8167 116.797 40.91L116.997 40.7H117.187V42.14H116.927C116.781 41.7333 116.621 41.4433 116.447 41.27C116.274 41.0967 116.061 41.01 115.807 41.01C115.581 41.01 115.397 41.07 115.257 41.19C115.124 41.31 115.057 41.4767 115.057 41.69C115.057 41.8033 115.074 41.9033 115.107 41.99C115.147 42.07 115.207 42.15 115.287 42.23C115.367 42.31 115.467 42.3933 115.587 42.48C115.714 42.56 115.864 42.6533 116.037 42.76C116.324 42.94 116.567 43.1 116.767 43.24C116.974 43.38 117.141 43.52 117.267 43.66C117.394 43.7933 117.487 43.9333 117.547 44.08C117.607 44.2267 117.637 44.3933 117.637 44.58C117.637 45.0533 117.484 45.4267 117.177 45.7C116.871 45.9667 116.467 46.1 115.967 46.1C115.447 46.1 115.001 45.95 114.627 45.65L114.427 46ZM120.188 44.41C120.188 44.6833 120.195 44.9 120.208 45.06C120.222 45.22 120.255 45.3433 120.308 45.43C120.368 45.51 120.452 45.5633 120.558 45.59C120.665 45.6167 120.815 45.6367 121.008 45.65V46H118.348V45.65C118.542 45.6367 118.695 45.6167 118.808 45.59C118.922 45.5633 119.008 45.51 119.068 45.43C119.128 45.35 119.165 45.2367 119.178 45.09C119.198 44.9367 119.208 44.7333 119.208 44.48V40.29C119.208 39.8967 119.202 39.5833 119.188 39.35C119.182 39.1167 119.165 38.94 119.138 38.82C119.125 38.74 119.102 38.6767 119.068 38.63C119.042 38.5767 118.998 38.5367 118.938 38.51C118.878 38.4767 118.798 38.4533 118.698 38.44C118.598 38.4267 118.475 38.42 118.328 38.42V38.08L120.168 37.7V41.51H120.208C120.308 41.3767 120.432 41.2567 120.578 41.15C120.732 41.0367 120.895 40.94 121.068 40.86C121.242 40.78 121.422 40.7167 121.608 40.67C121.802 40.6233 121.988 40.6 122.168 40.6C122.475 40.6 122.755 40.6533 123.008 40.76C123.268 40.8667 123.468 41.01 123.608 41.19C123.722 41.3433 123.805 41.5467 123.858 41.8C123.912 42.0467 123.938 42.3833 123.938 42.81V44.41C123.938 44.6833 123.945 44.9 123.958 45.06C123.972 45.2133 124.005 45.3333 124.058 45.42C124.118 45.5067 124.202 45.5633 124.308 45.59C124.415 45.6167 124.565 45.6367 124.758 45.65V46H122.108V45.65C122.295 45.6433 122.445 45.6267 122.558 45.6C122.672 45.5667 122.755 45.51 122.808 45.43C122.868 45.35 122.905 45.2367 122.918 45.09C122.938 44.9367 122.948 44.7333 122.948 44.48V43.22C122.948 42.4733 122.862 41.9433 122.688 41.63C122.515 41.31 122.225 41.15 121.818 41.15C121.505 41.15 121.218 41.23 120.958 41.39C120.705 41.55 120.505 41.77 120.358 42.05C120.325 42.1233 120.295 42.1933 120.268 42.26C120.248 42.32 120.232 42.39 120.218 42.47C120.205 42.55 120.195 42.6433 120.188 42.75C120.188 42.85 120.188 42.9767 120.188 43.13V44.41Z" fill="white" fill-opacity="0.3"/>
<path d="M67.0217 13.424C67.0217 13.8293 67.0484 14.16 67.1017 14.416C67.155 14.6613 67.2617 14.8533 67.4217 14.992C67.5924 15.12 67.827 15.2107 68.1257 15.264C68.435 15.3173 68.8457 15.3493 69.3577 15.36V16H62.9897V15.36C63.3417 15.3493 63.6297 15.3173 63.8537 15.264C64.0777 15.2107 64.2484 15.12 64.3657 14.992C64.483 14.864 64.563 14.6827 64.6057 14.448C64.6484 14.2133 64.6697 13.9093 64.6697 13.536V6.144C64.6697 5.77067 64.6484 5.472 64.6057 5.248C64.5737 5.01333 64.5044 4.832 64.3977 4.704C64.291 4.56533 64.1364 4.47467 63.9337 4.432C63.7417 4.37867 63.4857 4.34133 63.1657 4.32V3.68H72.9577L73.1497 7.056H72.4777C72.4137 6.59733 72.3177 6.21333 72.1897 5.904C72.0724 5.584 71.9017 5.328 71.6777 5.136C71.4537 4.93333 71.1657 4.78933 70.8137 4.704C70.4617 4.61867 70.0297 4.576 69.5177 4.576H67.3097C67.1177 4.576 67.0217 4.66667 67.0217 4.848V9.472C67.6724 9.472 68.2004 9.44533 68.6057 9.392C69.0217 9.33867 69.3524 9.23733 69.5977 9.088C69.843 8.928 70.019 8.71467 70.1257 8.448C70.2324 8.18133 70.307 7.82933 70.3497 7.392H70.9417V12.4H70.3497C70.2857 11.952 70.195 11.5947 70.0777 11.328C69.9604 11.0507 69.779 10.8427 69.5337 10.704C69.299 10.5547 68.979 10.4533 68.5737 10.4C68.1684 10.3467 67.651 10.32 67.0217 10.32V13.424ZM78.5431 11.44C77.6471 11.8453 76.9697 12.224 76.5111 12.576C76.0631 12.9173 75.8391 13.2747 75.8391 13.648C75.8391 13.9573 75.9244 14.2027 76.0951 14.384C76.2657 14.5653 76.4791 14.656 76.7351 14.656C76.9911 14.656 77.2311 14.6133 77.4551 14.528C77.6791 14.432 77.8711 14.3093 78.0311 14.16C78.1911 14.0107 78.3137 13.8347 78.3991 13.632C78.4951 13.4187 78.5431 13.1947 78.5431 12.96V11.44ZM78.5431 10.592V9.92C78.5431 9.30133 78.4311 8.85333 78.2071 8.576C77.9937 8.288 77.6577 8.144 77.1991 8.144C76.8897 8.144 76.6551 8.22933 76.4951 8.4C76.3351 8.56 76.1857 8.832 76.0471 9.216C75.9511 9.48267 75.8124 9.69067 75.6311 9.84C75.4604 9.98933 75.2204 10.064 74.9111 10.064C74.6124 10.064 74.3831 9.97333 74.2231 9.792C74.0631 9.61067 73.9831 9.35467 73.9831 9.024C73.9831 8.512 74.2604 8.10667 74.8151 7.808C75.3804 7.50933 76.2284 7.36 77.3591 7.36C78.5537 7.36 79.4071 7.57867 79.9191 8.016C80.4311 8.44267 80.6871 9.16267 80.6871 10.176V13.68C80.6871 14.5867 80.8684 15.04 81.2311 15.04C81.4337 15.04 81.6204 14.9707 81.7911 14.832L82.0311 15.296C81.8817 15.5627 81.6471 15.776 81.3271 15.936C81.0177 16.0853 80.6657 16.16 80.2711 16.16C79.7804 16.16 79.4071 16.0107 79.1511 15.712C78.8951 15.4133 78.7671 14.992 78.7671 14.448H78.6871C78.3777 15.0027 77.9777 15.424 77.4871 15.712C76.9964 16 76.4364 16.144 75.8071 16.144C75.1351 16.144 74.5964 15.9573 74.1911 15.584C73.7857 15.2 73.5831 14.704 73.5831 14.096C73.5831 13.6267 73.7911 13.1893 74.2071 12.784C74.6231 12.368 75.3164 11.9627 76.2871 11.568L78.5431 10.592ZM86.3386 13.392C86.3386 13.8293 86.3492 14.176 86.3706 14.432C86.4026 14.6773 86.4612 14.8693 86.5466 15.008C86.6426 15.136 86.7812 15.2213 86.9626 15.264C87.1546 15.3067 87.4106 15.3387 87.7306 15.36V16H82.6906V15.36C82.9999 15.3387 83.2452 15.3067 83.4266 15.264C83.6186 15.2213 83.7626 15.136 83.8586 15.008C83.9652 14.88 84.0346 14.6987 84.0666 14.464C84.0986 14.2293 84.1146 13.9093 84.1146 13.504V11.504C84.1146 10.8747 84.1039 10.368 84.0826 9.984C84.0612 9.58933 84.0346 9.32267 84.0026 9.184C83.9706 9.04533 83.9279 8.93333 83.8746 8.848C83.8212 8.752 83.7412 8.68267 83.6346 8.64C83.5279 8.58667 83.3946 8.55467 83.2346 8.544C83.0746 8.52267 82.8719 8.512 82.6266 8.512V7.968L85.7146 7.36L85.9226 8.768H85.9866C86.3386 8.32 86.7546 7.97333 87.2346 7.728C87.7146 7.48267 88.2426 7.36 88.8186 7.36C89.5012 7.36 90.0506 7.456 90.4666 7.648C90.8932 7.82933 91.2719 8.13867 91.6026 8.576C91.7839 8.82133 91.9439 9.14133 92.0826 9.536C92.2212 9.92 92.2906 10.4533 92.2906 11.136V13.392C92.2906 13.8293 92.3012 14.176 92.3226 14.432C92.3546 14.6773 92.4132 14.8693 92.4986 15.008C92.5946 15.136 92.7332 15.2213 92.9146 15.264C93.0959 15.3067 93.3412 15.3387 93.6506 15.36V16H88.6426V15.36C88.9626 15.3493 89.2132 15.3227 89.3946 15.28C89.5866 15.2267 89.7306 15.136 89.8266 15.008C89.9226 14.88 89.9866 14.6987 90.0186 14.464C90.0506 14.2187 90.0666 13.8987 90.0666 13.504V11.328C90.0666 10.784 90.0346 10.3253 89.9706 9.952C89.9066 9.57867 89.7999 9.28 89.6506 9.056C89.5119 8.82133 89.3252 8.656 89.0906 8.56C88.8559 8.45333 88.5626 8.4 88.2106 8.4C87.8692 8.4 87.5759 8.496 87.3306 8.688C87.0852 8.88 86.8719 9.14667 86.6906 9.488C86.5946 9.68 86.5092 9.93067 86.4346 10.24C86.3706 10.5387 86.3386 10.8533 86.3386 11.184V13.392ZM94.2516 8.4V7.68C94.8916 7.49867 95.4249 7.22667 95.8516 6.864C96.2889 6.49067 96.6142 6.064 96.8276 5.584H97.6436V7.52H99.4836V8.4H97.6436V13.312C97.6436 13.9733 97.7129 14.4427 97.8516 14.72C98.0009 14.9973 98.2462 15.136 98.5876 15.136C99.0036 15.136 99.3182 14.944 99.5316 14.56L99.8676 15.024C99.5689 15.7813 98.8649 16.16 97.7556 16.16C97.0196 16.16 96.4436 15.9893 96.0276 15.648C95.6222 15.3067 95.4196 14.8267 95.4196 14.208V8.4H94.2516ZM105.465 11.44C104.569 11.8453 103.892 12.224 103.433 12.576C102.985 12.9173 102.761 13.2747 102.761 13.648C102.761 13.9573 102.846 14.2027 103.017 14.384C103.188 14.5653 103.401 14.656 103.657 14.656C103.913 14.656 104.153 14.6133 104.377 14.528C104.601 14.432 104.793 14.3093 104.953 14.16C105.113 14.0107 105.236 13.8347 105.321 13.632C105.417 13.4187 105.465 13.1947 105.465 12.96V11.44ZM105.465 10.592V9.92C105.465 9.30133 105.353 8.85333 105.129 8.576C104.916 8.288 104.58 8.144 104.121 8.144C103.812 8.144 103.577 8.22933 103.417 8.4C103.257 8.56 103.108 8.832 102.969 9.216C102.873 9.48267 102.734 9.69067 102.553 9.84C102.382 9.98933 102.142 10.064 101.833 10.064C101.534 10.064 101.305 9.97333 101.145 9.792C100.985 9.61067 100.905 9.35467 100.905 9.024C100.905 8.512 101.182 8.10667 101.737 7.808C102.302 7.50933 103.15 7.36 104.281 7.36C105.476 7.36 106.329 7.57867 106.841 8.016C107.353 8.44267 107.609 9.16267 107.609 10.176V13.68C107.609 14.5867 107.79 15.04 108.153 15.04C108.356 15.04 108.542 14.9707 108.713 14.832L108.953 15.296C108.804 15.5627 108.569 15.776 108.249 15.936C107.94 16.0853 107.588 16.16 107.193 16.16C106.702 16.16 106.329 16.0107 106.073 15.712C105.817 15.4133 105.689 14.992 105.689 14.448H105.609C105.3 15.0027 104.9 15.424 104.409 15.712C103.918 16 103.358 16.144 102.729 16.144C102.057 16.144 101.518 15.9573 101.113 15.584C100.708 15.2 100.505 14.704 100.505 14.096C100.505 13.6267 100.713 13.1893 101.129 12.784C101.545 12.368 102.238 11.9627 103.209 11.568L105.465 10.592ZM110.508 16H110.012V13.088H110.684C110.866 13.856 111.127 14.416 111.468 14.768C111.81 15.12 112.252 15.296 112.796 15.296C113.191 15.296 113.495 15.216 113.708 15.056C113.932 14.8853 114.044 14.656 114.044 14.368C114.044 14.0693 113.911 13.7813 113.644 13.504C113.378 13.216 112.946 12.912 112.348 12.592C111.538 12.1547 110.956 11.7227 110.604 11.296C110.252 10.8587 110.076 10.368 110.076 9.824C110.076 9.472 110.14 9.14667 110.268 8.848C110.407 8.53867 110.588 8.272 110.812 8.048C111.047 7.824 111.324 7.65333 111.644 7.536C111.964 7.408 112.311 7.344 112.684 7.344C113.015 7.344 113.34 7.392 113.66 7.488C113.991 7.584 114.279 7.71733 114.524 7.888L114.812 7.504H115.228V9.92H114.604C114.359 9.312 114.103 8.87467 113.836 8.608C113.58 8.34133 113.266 8.208 112.892 8.208C112.594 8.208 112.354 8.288 112.172 8.448C112.002 8.608 111.916 8.82133 111.916 9.088C111.916 9.38667 112.044 9.66933 112.3 9.936C112.567 10.2027 113.004 10.496 113.612 10.816C114.039 11.0507 114.407 11.28 114.716 11.504C115.026 11.728 115.276 11.9573 115.468 12.192C115.66 12.416 115.799 12.656 115.884 12.912C115.98 13.1573 116.028 13.424 116.028 13.712C116.028 14.0853 115.959 14.4213 115.82 14.72C115.682 15.0187 115.484 15.2747 115.228 15.488C114.972 15.7013 114.663 15.8667 114.3 15.984C113.948 16.1013 113.554 16.16 113.116 16.16C112.658 16.16 112.231 16.1013 111.836 15.984C111.442 15.856 111.116 15.6747 110.86 15.44L110.508 16ZM120.714 13.376C120.714 13.8027 120.73 14.144 120.762 14.4C120.794 14.656 120.858 14.8533 120.954 14.992C121.05 15.1307 121.188 15.2267 121.37 15.28C121.551 15.3227 121.796 15.3493 122.106 15.36V16H117.066V15.36C117.364 15.3493 117.604 15.3173 117.786 15.264C117.978 15.2 118.122 15.104 118.218 14.976C118.324 14.8373 118.394 14.6507 118.426 14.416C118.468 14.1707 118.49 13.8613 118.49 13.488V11.52C118.49 10.9013 118.479 10.3947 118.458 10C118.436 9.59467 118.41 9.31733 118.378 9.168C118.324 8.90133 118.202 8.72533 118.01 8.64C117.828 8.55467 117.492 8.512 117.002 8.512V7.968L120.714 7.36V13.376ZM118.362 3.968C118.362 3.616 118.479 3.32267 118.714 3.088C118.959 2.84267 119.252 2.72 119.594 2.72C119.946 2.72 120.239 2.84267 120.474 3.088C120.719 3.32267 120.842 3.616 120.842 3.968C120.842 4.30933 120.719 4.60267 120.474 4.848C120.239 5.08267 119.946 5.2 119.594 5.2C119.252 5.2 118.959 5.08267 118.714 4.848C118.479 4.60267 118.362 4.30933 118.362 3.968ZM127.887 11.44C126.991 11.8453 126.313 12.224 125.855 12.576C125.407 12.9173 125.183 13.2747 125.183 13.648C125.183 13.9573 125.268 14.2027 125.439 14.384C125.609 14.5653 125.823 14.656 126.079 14.656C126.335 14.656 126.575 14.6133 126.799 14.528C127.023 14.432 127.215 14.3093 127.375 14.16C127.535 14.0107 127.657 13.8347 127.743 13.632C127.839 13.4187 127.887 13.1947 127.887 12.96V11.44ZM127.887 10.592V9.92C127.887 9.30133 127.775 8.85333 127.551 8.576C127.337 8.288 127.001 8.144 126.543 8.144C126.233 8.144 125.999 8.22933 125.839 8.4C125.679 8.56 125.529 8.832 125.391 9.216C125.295 9.48267 125.156 9.69067 124.975 9.84C124.804 9.98933 124.564 10.064 124.255 10.064C123.956 10.064 123.727 9.97333 123.567 9.792C123.407 9.61067 123.327 9.35467 123.327 9.024C123.327 8.512 123.604 8.10667 124.159 7.808C124.724 7.50933 125.572 7.36 126.703 7.36C127.897 7.36 128.751 7.57867 129.263 8.016C129.775 8.44267 130.031 9.16267 130.031 10.176V13.68C130.031 14.5867 130.212 15.04 130.575 15.04C130.777 15.04 130.964 14.9707 131.135 14.832L131.375 15.296C131.225 15.5627 130.991 15.776 130.671 15.936C130.361 16.0853 130.009 16.16 129.615 16.16C129.124 16.16 128.751 16.0107 128.495 15.712C128.239 15.4133 128.111 14.992 128.111 14.448H128.031C127.721 15.0027 127.321 15.424 126.831 15.712C126.34 16 125.78 16.144 125.151 16.144C124.479 16.144 123.94 15.9573 123.535 15.584C123.129 15.2 122.927 14.704 122.927 14.096C122.927 13.6267 123.135 13.1893 123.551 12.784C123.967 12.368 124.66 11.9627 125.631 11.568L127.887 10.592Z" fill="white" fill-opacity="0.3"/>
<path d="M169.67 6.00327C170.926 6.05262 172.392 6.60842 173.367 7.3772C174.361 8.14598 175.159 9.45237 175.391 10.6107C175.468 10.9912 175.265 11.2393 174.855 11.2535C173.549 11.3237 172.025 10.812 171.043 9.96402C170.11 9.19135 169.291 7.88755 169.016 6.69283C168.933 6.2565 169.174 5.96561 169.67 6.00327ZM180.537 7.03827C181.362 7.97586 181.947 9.41471 181.974 10.5912C182.067 11.799 181.544 13.2521 180.668 14.1936C180.388 14.4871 180.018 14.4793 179.762 14.1715C178.937 13.2352 178.355 11.834 178.367 10.6354C178.342 9.47835 178.825 8.04858 179.555 7.08112C179.85 6.70971 180.239 6.69673 180.537 7.03827ZM175.026 13.5183C176.306 13.6248 177.743 14.3001 178.624 15.1727C178.896 15.4402 178.866 15.7714 178.559 16.009C177.5 16.7531 175.931 17.0947 174.619 16.8739C173.352 16.7077 171.895 16.0363 171.016 15.2013C170.679 14.8805 170.729 14.5299 171.138 14.3027C172.213 13.7118 173.762 13.391 175.026 13.5183ZM185.716 13.1015C186.388 14.1468 186.75 15.6246 186.615 16.8129C186.505 18.0583 185.768 19.4128 184.774 20.1906C184.47 20.4465 184.115 20.3802 183.9 20.0491C183.214 19.0648 182.87 17.5856 183.047 16.3934C183.203 15.2013 183.898 13.8495 184.723 13.0106C185.064 12.7106 185.457 12.7378 185.716 13.1015ZM179.289 18.7882C180.547 19.0712 181.876 19.9075 182.624 20.8893C182.878 21.1971 182.786 21.5321 182.433 21.7165C181.279 22.3139 179.672 22.4645 178.407 22.0866C177.123 21.7477 175.791 20.8724 175.065 19.9088C174.807 19.5634 174.899 19.2271 175.332 19.0362C176.502 18.5921 178.092 18.4816 179.289 18.7882ZM189.143 21.936C189.417 23.1099 189.205 24.5955 188.632 25.7058C188.081 26.8525 186.905 27.8758 185.691 28.2849C185.314 28.4316 184.971 28.2667 184.896 27.8862C184.624 26.7304 184.834 25.2461 185.429 24.1332C186.01 23.1021 187.143 22.0425 188.264 21.5243C188.675 21.3178 189.039 21.4802 189.143 21.936ZM181.034 25.1929C182.124 25.8746 183.057 27.0914 183.392 28.2615C183.507 28.6186 183.308 28.9056 182.922 28.9575C181.604 29.1238 180.028 28.7316 178.996 27.9862C177.947 27.3005 177.012 26.0642 176.637 24.8968C176.535 24.4812 176.754 24.1722 177.223 24.154C178.512 24.1059 180.028 24.5215 181.034 25.1929ZM177.907 29.9691C179.123 30.2354 180.486 30.9924 181.286 31.8924C182.129 32.7689 182.71 34.1701 182.762 35.4012C182.757 35.7895 182.49 36.0038 182.077 35.9791C180.77 35.8168 179.349 35.0844 178.559 34.1065C177.752 33.1494 177.171 31.7482 177.162 30.5522C177.12 30.0912 177.425 29.873 177.907 29.9691ZM189.996 30.673C189.965 31.8729 189.357 33.2949 188.519 34.213C187.705 35.1688 186.274 35.8856 184.951 35.9934C184.546 36.0466 184.298 35.8155 184.301 35.4103C184.371 34.1688 185.003 32.8027 185.846 31.9417C186.667 31.0626 188.032 30.2938 189.263 30.0756C189.747 29.9977 190.036 30.225 189.996 30.673ZM175.539 34.0662C176.527 34.7558 177.44 35.9752 177.789 37.0868C178.187 38.2711 178.122 39.7814 177.626 40.8463C177.477 41.2255 177.138 41.3306 176.791 41.1268C175.668 40.5255 174.694 39.3113 174.375 38.0815C174.021 36.9323 174.106 35.4194 174.597 34.2974C174.762 33.8779 175.143 33.7715 175.539 34.0662ZM171.754 38.375C172.517 39.2983 173.079 40.6995 173.126 41.8735C173.158 43.0877 172.676 44.5369 171.922 45.468C171.684 45.7784 171.337 45.8069 171.044 45.5212C170.105 44.672 169.499 43.2539 169.525 41.9773C169.498 40.8008 169.98 39.3697 170.772 38.3984C171.066 38.027 171.433 38.0153 171.755 38.375H171.754ZM181.936 38.8685C183.058 38.3711 184.645 38.2218 185.879 38.4867C186.341 38.5841 186.494 38.9178 186.306 39.3204C185.71 40.4125 184.558 41.4722 183.415 41.9722C182.255 42.5319 180.645 42.6448 179.377 42.2475C178.975 42.1254 178.846 41.828 179.039 41.4839C179.593 40.3749 180.749 39.3516 181.936 38.8685ZM176.639 44.5785C177.873 44.3798 179.432 44.5979 180.527 45.1278C180.977 45.3407 181.072 45.6992 180.737 46.0563C179.857 46.9601 178.446 47.6925 177.215 47.9107C175.926 48.1522 174.342 47.8964 173.234 47.2341C172.886 47.012 172.835 46.6874 173.116 46.3939C173.973 45.4732 175.384 44.759 176.639 44.5785Z" fill="white" fill-opacity="0.3"/>
<path d="M26.3304 6.00327C25.074 6.05262 23.6078 6.60842 22.6325 7.3772C21.6394 8.14598 20.8408 9.45237 20.6094 10.6107C20.5318 10.9912 20.7353 11.2393 21.1447 11.2535C22.4507 11.3237 23.9753 10.812 24.957 9.96402C25.8904 9.19135 26.7093 7.88755 26.984 6.69283C27.0666 6.2565 26.8263 5.96561 26.3304 6.00327ZM15.4631 7.03827C14.6379 7.97586 14.0529 9.41471 14.0262 10.5912C13.9334 11.799 14.456 13.2521 15.3322 14.1936C15.6119 14.4871 15.982 14.4793 16.2376 14.1715C17.0628 13.2352 17.6452 11.834 17.6325 10.6354C17.658 9.47835 17.1747 8.04858 16.4448 7.08112C16.1498 6.70971 15.7607 6.69673 15.4631 7.03827ZM20.9743 13.5183C19.6938 13.6248 18.2569 14.3001 17.3757 15.1727C17.1035 15.4402 17.1341 15.7714 17.4405 16.009C18.4998 16.7531 20.0689 17.0947 21.3812 16.8739C22.6478 16.7077 24.105 16.0363 24.9837 15.2013C25.3207 14.8805 25.2711 14.5299 24.8617 14.3027C23.7871 13.7118 22.2383 13.391 20.9743 13.5183ZM10.2839 13.1015C9.61244 14.1468 9.25002 15.6246 9.38482 16.8129C9.49545 18.0583 10.2317 19.4128 11.2261 20.1906C11.53 20.4465 11.8848 20.3802 12.0997 20.0491C12.7864 19.0648 13.1297 17.5856 12.953 16.3934C12.7966 15.2013 12.1023 13.8495 11.277 13.0106C10.9362 12.7106 10.5433 12.7378 10.2839 13.1015ZM16.7106 18.7882C15.453 19.0712 14.1241 19.9075 13.3764 20.8893C13.1221 21.1971 13.2137 21.5321 13.5672 21.7165C14.7205 22.3139 16.3278 22.4645 17.5931 22.0866C18.8774 21.7477 20.2088 20.8724 20.9349 19.9088C21.193 19.5634 21.1015 19.2271 20.6679 19.0362C19.498 18.5921 17.9085 18.4816 16.7106 18.7882ZM6.85684 21.936C6.58344 23.1099 6.79453 24.5955 7.36803 25.7058C7.91864 26.8525 9.09489 27.8758 10.3093 28.2849C10.6857 28.4316 11.029 28.2667 11.104 27.8862C11.3762 26.7304 11.1664 25.2461 10.5712 24.1332C9.99011 23.1021 8.85709 22.0425 7.73553 21.5243C7.32479 21.3178 6.96111 21.4802 6.85684 21.936ZM14.9659 25.1929C13.8762 25.8746 12.9428 27.0914 12.6084 28.2615C12.4927 28.6186 12.6923 28.9056 13.0776 28.9575C14.3963 29.1238 15.9718 28.7316 17.0043 27.9862C18.0534 27.3005 18.988 26.0642 19.3632 24.8968C19.4649 24.4812 19.2462 24.1722 18.777 24.154C17.4876 24.1059 15.9718 24.5215 14.9659 25.1929ZM18.0929 29.9691C16.8772 30.2354 15.514 30.9924 14.7142 31.8924C13.8711 32.7689 13.29 34.1701 13.2378 35.4012C13.2429 35.7895 13.5099 36.0038 13.9232 35.9791C15.2304 35.8168 16.6508 35.0844 17.4405 34.1065C18.248 33.1494 18.8291 31.7482 18.838 30.5522C18.88 30.0912 18.5748 29.873 18.0929 29.9691ZM6.00358 30.673C6.03537 31.8729 6.64321 33.2949 7.4812 34.213C8.29504 35.1688 9.72561 35.8856 11.0494 35.9934C11.4537 36.0466 11.7017 35.8155 11.6992 35.4103C11.6292 34.1688 10.9972 32.8027 10.1541 31.9417C9.33268 31.0626 7.96823 30.2938 6.73731 30.0756C6.25282 29.9977 5.96416 30.225 6.00358 30.673ZM20.4606 34.0662C19.4725 34.7558 18.5595 35.9752 18.2111 37.0868C17.8131 38.2711 17.8779 39.7814 18.3739 40.8463C18.5227 41.2255 18.8622 41.3306 19.2093 41.1268C20.3321 40.5255 21.3062 39.3113 21.6254 38.0815C21.9789 36.9323 21.8937 35.4194 21.4029 34.2974C21.2375 33.8779 20.8573 33.7715 20.4606 34.0662ZM24.2462 38.375C23.4832 39.2983 22.9212 40.6995 22.8741 41.8735C22.8423 43.0877 23.3243 44.5369 24.0783 45.468C24.3161 45.7784 24.6633 45.8069 24.9558 45.5212C25.8955 44.672 26.5008 43.2539 26.4753 41.9773C26.502 40.8008 26.0201 39.3697 25.2279 38.3984C24.9341 38.027 24.5666 38.0153 24.2449 38.375H24.2462ZM14.0644 38.8685C12.9415 38.3711 11.3546 38.2218 10.1211 38.4867C9.65949 38.5841 9.50562 38.9178 9.69382 39.3204C10.2902 40.4125 11.4423 41.4722 12.5855 41.9722C13.7452 42.5319 15.3551 42.6448 16.6229 42.2475C17.0247 42.1254 17.1544 41.828 16.9611 41.4839C16.4067 40.3749 15.2508 39.3516 14.0644 38.8685ZM19.3606 44.5785C18.1272 44.3798 16.5682 44.5979 15.4733 45.1278C15.0232 45.3407 14.9278 45.6992 15.2635 46.0563C16.1435 46.9601 17.5537 47.6925 18.7846 47.9107C20.074 48.1522 21.6584 47.8964 22.766 47.2341C23.1145 47.012 23.1653 46.6874 22.8843 46.3939C22.0272 45.4732 20.6157 44.759 19.3606 44.5785Z" fill="white" fill-opacity="0.3"/>
</svg>
