<svg width="139" height="147" viewBox="0 0 139 147" fill="none" xmlns="http://www.w3.org/2000/svg">
<g clip-path="url(#clip0_114_729)">
<path d="M69.501 146.347C107.885 146.347 139.002 114.8 139.002 75.8849C139.002 36.9697 107.885 5.42273 69.501 5.42273C31.1167 5.42273 0 36.9697 0 75.8849C0 114.8 31.1167 146.347 69.501 146.347Z" fill="#6750A4"/>
<path d="M69.7596 143.977C106.663 143.977 136.579 113.647 136.579 76.2333C136.579 38.8195 106.663 8.48962 69.7596 8.48962C32.8564 8.48962 2.94049 38.8195 2.94049 76.2333C2.94049 113.647 32.8564 143.977 69.7596 143.977Z" fill="url(#paint0_linear_114_729)"/>
<path d="M127.368 140.004C128.803 140.004 129.967 138.841 129.967 137.406C129.967 135.97 128.803 134.807 127.368 134.807C125.933 134.807 124.77 135.97 124.77 137.406C124.77 138.841 125.933 140.004 127.368 140.004Z" fill="#F9FAF7"/>
<path d="M127.157 6.63434C128.989 6.63434 130.474 5.14917 130.474 3.31711C130.474 1.48505 128.989 -0.00012207 127.157 -0.00012207C125.324 -0.00012207 123.839 1.48505 123.839 3.31711C123.839 5.14917 125.324 6.63434 127.157 6.63434Z" fill="#F9FAF7"/>
<path d="M14.1059 143.519C15.6332 143.519 16.8713 142.281 16.8713 140.753C16.8713 139.226 15.6332 137.988 14.1059 137.988C12.5786 137.988 11.3405 139.226 11.3405 140.753C11.3405 142.281 12.5786 143.519 14.1059 143.519Z" fill="#F9FAF7"/>
<path d="M5.87286 23.7927C7.40014 23.7927 8.63824 22.5546 8.63824 21.0273C8.63824 19.5001 7.40014 18.262 5.87286 18.262C4.34559 18.262 3.10748 19.5001 3.10748 21.0273C3.10748 22.5546 4.34559 23.7927 5.87286 23.7927Z" fill="#F9FAF7"/>
<path d="M68.77 20.3717C70.8731 20.3717 72.578 18.6668 72.578 16.5637C72.578 14.4606 70.8731 12.7557 68.77 12.7557C66.6669 12.7557 64.962 14.4606 64.962 16.5637C64.962 18.6668 66.6669 20.3717 68.77 20.3717Z" fill="#FCFDF9"/>
<path d="M11.6846 62.5711C14.1825 62.5711 16.2074 60.5462 16.2074 58.0484C16.2074 55.5505 14.1825 53.5256 11.6846 53.5256C9.18677 53.5256 7.16187 55.5505 7.16187 58.0484C7.16187 60.5462 9.18677 62.5711 11.6846 62.5711Z" fill="#FCFDF9"/>
<path d="M122.123 69.7188C124.456 69.7188 126.348 67.827 126.348 65.4934C126.348 63.1597 124.456 61.2679 122.123 61.2679C119.789 61.2679 117.897 63.1597 117.897 65.4934C117.897 67.827 119.789 69.7188 122.123 69.7188Z" fill="#FCFDF9"/>
<path d="M89.3087 21.6831C89.7979 21.6831 90.1945 21.2865 90.1945 20.7973C90.1945 20.3081 89.7979 19.9115 89.3087 19.9115C88.8194 19.9115 88.4229 20.3081 88.4229 20.7973C88.4229 21.2865 88.8194 21.6831 89.3087 21.6831Z" fill="#D8F9FF"/>
<path d="M122.334 51.1085C122.824 51.1085 123.22 50.712 123.22 50.2227C123.22 49.7335 122.824 49.3369 122.334 49.3369C121.845 49.3369 121.449 49.7335 121.449 50.2227C121.449 50.712 121.845 51.1085 122.334 51.1085Z" fill="#D8F9FF"/>
<path d="M16.2318 44.1238C16.721 44.1238 17.1176 43.7272 17.1176 43.238C17.1176 42.7488 16.721 42.3522 16.2318 42.3522C15.7425 42.3522 15.3459 42.7488 15.3459 43.238C15.3459 43.7272 15.7425 44.1238 16.2318 44.1238Z" fill="#D8F9FF"/>
<path d="M23.1636 60.0971C23.6528 60.0971 24.0494 59.7005 24.0494 59.2113C24.0494 58.722 23.6528 58.3254 23.1636 58.3254C22.6744 58.3254 22.2778 58.722 22.2778 59.2113C22.2778 59.7005 22.6744 60.0971 23.1636 60.0971Z" fill="#D8F9FF"/>
<path d="M128.851 75.4391C129.231 75.4391 129.539 75.1309 129.539 74.7508C129.539 74.3707 129.231 74.0625 128.851 74.0625C128.471 74.0625 128.162 74.3707 128.162 74.7508C128.162 75.1309 128.471 75.4391 128.851 75.4391Z" fill="#D8F9FF"/>
<path d="M14.0611 72.4191C14.4412 72.4191 14.7494 72.1109 14.7494 71.7308C14.7494 71.3506 14.4412 71.0425 14.0611 71.0425C13.681 71.0425 13.3728 71.3506 13.3728 71.7308C13.3728 72.1109 13.681 72.4191 14.0611 72.4191Z" fill="#D8F9FF"/>
<path d="M56.7921 145.734C48.8727 145.734 40.5928 143.13 32.1867 137.996C22.9742 132.365 16.5434 125.709 13.0754 118.207C10.9841 113.686 10.4465 109.792 10.3793 107.237C7.85218 106.045 4.21728 103.657 2.69408 99.3784C1.99203 97.3543 1.71223 95.2078 1.87194 93.0713C2.03165 90.9349 2.62748 88.8538 3.62266 86.9566C4.6082 85.0449 5.98073 83.3592 7.65299 82.0067C9.32524 80.6542 11.2606 79.6644 13.3361 79.1003C14.9373 78.6542 16.5917 78.4275 18.2539 78.4263C18.5838 78.4263 18.9178 78.4263 19.2456 78.4548C25.9371 78.8295 31.1074 82.8004 33.5348 89.2475C34.0072 89.217 34.5 89.1986 35.003 89.1986C38.587 89.1986 41.5194 90.1557 43.7492 92.0495C46.8811 94.7212 47.8219 96.9694 48.7281 100.991L48.8014 101.321C50.1413 107.396 56.5681 108.2 58.5067 108.3C59.8996 108.373 61.2639 108.383 62.4124 108.383H63.6342H64.8031C67.5278 108.383 70.1486 108.442 72.2664 109.165C72.8376 109.375 73.4264 109.534 74.0258 109.64L75.2313 107.64L76.8604 108.208L77.117 106.502H77.6057L77.4326 106.035L79.4547 104.461C79.6584 104.296 79.8905 104.133 80.1328 103.968C80.4424 103.765 80.7702 103.545 81.1083 103.357C83.4729 101.954 86.1682 101.206 88.9177 101.189C90.9604 101.18 92.9775 101.644 94.8109 102.545C94.8655 102.208 94.9015 101.868 94.9189 101.527C95.0473 99.2412 95.7392 97.0228 96.9328 95.0694C98.5395 92.4894 101.751 89.4267 107.966 89.3127C108.945 86.5045 110.342 84.291 112.197 82.5927C114.857 80.168 118.33 78.8308 121.929 78.8458C125.967 78.8545 129.842 80.4444 132.722 83.2748C137.951 88.4187 139.086 96.7332 135.414 103.042C133.076 107.064 129.508 109.08 126.823 110.073C126.914 111.923 126.798 113.778 126.478 115.602C125.379 121.864 120.259 128.779 112.786 134.1C104.818 139.776 95.4402 142.902 86.3845 142.902C82.2226 142.91 78.0886 142.222 74.1541 140.865C69.1487 144.048 63.1801 145.734 56.7921 145.734Z" fill="#11183F"/>
<path d="M108.267 59.9462C107.198 56.9141 105.547 52.1062 105.547 52.1062C105.547 52.1062 102.718 45.539 96.1508 41.5681C89.5835 37.5971 85.8672 37.4648 80.5217 40.2546C75.1763 43.0444 72.0199 45.8444 68.049 47.5244C64.0781 49.2044 59.3965 51.5462 58.8609 51.5136C58.3254 51.4811 55.8797 50.2104 54.9918 46.9074L55.002 40.4134C53.8311 41.5843 52.8964 43.0281 52.4892 43.2318C52.0819 43.4354 50.3184 43.1299 49.8093 42.4172C49.3002 41.7045 48.3839 39.9736 48.3839 39.9736C48.3839 39.9736 41.729 42.8408 37.7581 49.3062C33.7872 55.7717 33.7485 61.9113 31.6816 64.8742C29.6147 67.8371 28.1526 70.1789 25.3689 71.0953C26.216 72.8934 27.7331 73.5735 29.238 73.2335C30.7429 72.8934 30.8671 72.9239 30.8671 72.9239C29.7946 74.9315 29.3572 77.2174 29.6127 79.479C30.0546 83.2116 31.9891 86.2316 32.2946 87.1479C32.6 88.0643 33.3799 92.2062 33.3799 92.2062C33.3799 92.2062 39.0471 92.2388 41.6618 94.7517C44.2765 97.2646 45.4291 101.777 45.8689 103.779C46.3088 105.781 49.3654 109.583 54.2873 110.839C59.2092 112.095 67.6926 111.466 70.3399 112.23C72.9872 112.993 74.209 113.706 75.5835 112.688C76.9581 111.67 77.7217 112.128 78.5872 111.975C79.4526 111.823 79.9108 110.143 79.9108 110.143C79.9108 110.143 80.6235 110.244 81.4381 109.583C82.2526 108.921 81.5908 106.884 81.5908 106.884C81.5908 106.884 80.8781 103.27 81.1835 102.201C81.489 101.132 86.8853 97.4316 89.5326 96.7025C92.1799 95.9735 97.9672 96.558 98.3399 96.7025C98.7125 96.8471 99.7653 96.5417 99.7653 96.5417C99.7653 96.5417 101.751 94.5053 103.278 93.7417C104.805 92.978 108.216 92.8253 108.216 92.8253L109.489 87.1235C109.489 87.1235 112.951 83.2116 112.493 79.2407C112.034 75.2698 111.729 73.4615 111.729 73.4615C111.729 73.4615 116.382 74.1498 116.525 71.248C110.965 67.0735 109.336 62.9784 108.267 59.9462Z" fill="url(#paint1_linear_114_729)"/>
<path d="M84.959 99.2826C93.7581 93.9025 98.5436 94.5134 100.58 94.717C102.616 94.9207 103.634 99.0626 104.144 99.2826C104.653 99.5025 103.482 104.033 103.227 104.288C102.973 104.542 84.959 99.2826 84.959 99.2826Z" fill="#BC7039"/>
<path d="M34.0926 88.8116C37.9617 91.8661 42.0935 92.0026 45.3557 94.377C48.618 96.7514 50.9272 97.1607 53.9818 97.2971C57.0363 97.4336 58.9362 97.6046 58.9362 97.6046C58.9362 97.6046 53.3016 98.2461 50.6544 99.2643C48.0071 100.282 45.7671 101.504 45.2926 101.504C44.8181 101.504 37.9617 100.282 37.9617 100.282L33.4817 93.4219L31.9891 86.9789L34.0926 88.8116Z" fill="#BC7039"/>
<path d="M52.3691 47.3716C48.7036 46.3025 47.6345 44.2153 47.6345 44.2153C47.6345 44.2153 41.1182 47.0153 38.3182 52.7171C35.5182 58.4189 35.5182 70.1789 27.4236 72.1643C28.6455 73.0298 31.8018 71.9607 31.8018 71.9607C31.8018 71.9607 30.02 75.2189 33.1764 82.0407C36.3327 88.8625 47.4309 93.037 56.7982 94.5643C72.3763 96.6007 81.9981 96.2443 89.9399 93.8007C97.8818 91.357 103.315 89.8359 107.504 84.637C111.692 79.4382 110.389 72.6225 110.389 72.6225C110.389 72.6225 113.205 73.9971 115.14 72.6225C117.074 71.248 116.107 71.1971 115.547 71.5534C114.987 71.9098 112.493 72.7243 109.642 69.1098C106.791 65.4952 105.06 56.688 103.38 52.768C101.7 48.848 98.1872 43.248 92.6381 41.3644C87.089 39.4807 80.2163 44.5391 75.1763 48.0172C70.1363 51.4953 61.2782 55.5171 58.58 55.8225C55.8818 56.128 54.0002 53.1244 52.3691 47.3716Z" fill="url(#paint2_radial_114_729)"/>
<path d="M102.158 78.9862C104.239 78.9862 105.925 77.7207 105.925 76.1597C105.925 74.5987 104.239 73.3333 102.158 73.3333C100.077 73.3333 98.3908 74.5987 98.3908 76.1597C98.3908 77.7207 100.077 78.9862 102.158 78.9862Z" fill="#B56B3A"/>
<path d="M89.9847 93.7865C89.8228 94.5665 89.5973 95.332 89.3107 96.0754C89.1858 96.3973 89.0388 96.7103 88.8708 97.0121C88.8708 97.0121 84.1363 98.9935 83.2953 99.7408C82.4543 100.488 80.9637 101.981 80.9637 103.066C80.9637 104.152 81.039 105.565 80.6236 105.239C80.2082 104.913 75.8381 101.301 75.3637 101.03C75.2069 100.942 74.2986 100.576 72.9852 100.124C70.3033 99.2032 65.9333 97.9244 62.8563 97.9244C58.2745 97.9244 56.4927 97.6861 56.4927 97.6861C56.0161 96.5835 55.612 95.4509 55.2831 94.2956C52.6033 84.7939 56.5273 77.3816 61.5164 74.2171C67.0818 70.688 78.689 69.8267 85.5455 76.1862C90.7036 80.9696 91.0294 88.9013 89.9847 93.7865Z" fill="#CAAF93"/>
<path d="M89.9847 93.7865L89.9399 93.8007C81.9981 96.2444 72.3763 96.6007 56.7982 94.5644C56.2972 94.4829 55.7922 94.3933 55.2831 94.2956C52.6033 84.7939 56.5273 77.3816 61.5164 74.2171C67.0818 70.688 78.689 69.8267 85.5455 76.1862C90.7036 80.9696 91.0294 88.9013 89.9847 93.7865Z" fill="#FFFFE5"/>
<path d="M89.3107 96.0754C89.1857 96.3974 89.0388 96.7104 88.8708 97.0122C88.8708 97.0122 84.1363 98.9935 83.2953 99.7409C82.4543 100.488 80.9636 101.981 80.9636 103.066C80.9636 104.152 81.039 105.565 80.6236 105.239C80.2081 104.913 75.8381 101.301 75.3636 101.03C75.2068 100.942 74.2986 100.576 72.9852 100.124L72.7164 99.468C78.4854 98.4315 85.7633 96.8594 89.3107 96.0754Z" fill="#8D7B78"/>
<path d="M94.3954 56.3581C95.6044 56.3581 96.5845 55.3434 96.5845 54.0917C96.5845 52.8399 95.6044 51.8252 94.3954 51.8252C93.1864 51.8252 92.2064 52.8399 92.2064 54.0917C92.2064 55.3434 93.1864 56.3581 94.3954 56.3581Z" fill="#BD6D35"/>
<path d="M99.8875 96.8736C99.0049 98.3343 98.4912 99.9879 98.3908 101.692C98.2931 103.471 97.898 106.324 95.1163 106.799C91.3206 103.726 86.415 104.251 82.8676 106.33L82.6945 106.257C82.5163 106.196 82.3553 106.094 82.2252 105.958C82.0951 105.821 81.9997 105.656 81.9472 105.475C81.9472 105.475 80.9636 105.035 80.9636 103.473C80.9636 101.912 83.1344 99.2317 88.0909 97.399C91.4488 96.1568 96.273 96.3014 99.8875 96.8736Z" fill="url(#paint3_linear_114_729)"/>
<path opacity="0.25" d="M81.3362 103.193C83.8817 99.9608 88.6427 97.4418 93.0698 97.5172C91.0334 96.5499 89.0927 97.2443 88.4126 97.3889C87.7325 97.5335 82.5581 100.134 81.3362 103.193Z" fill="#FAFEE8"/>
<path d="M80.1144 109.955C79.9108 111.314 79.0962 112.637 76.7544 111.823C75.7485 113.49 73.9381 113.384 71.1544 112.434C68.3707 111.483 63.5527 112.026 58.3254 111.755C53.098 111.485 46.9217 108.87 45.4189 102.048C45.3985 101.954 45.3782 101.861 45.3558 101.769C61.9603 92.9985 79.587 100.9 81.5887 107.182C81.5908 107.19 82.6253 109.955 80.1144 109.955Z" fill="url(#paint4_linear_114_729)"/>
<path opacity="0.25" d="M56.8613 98.403C68.6722 98.01 78.0394 101.527 81.6377 108.654C82.3158 107.499 81.5012 104.431 75.494 100.916C69.4867 97.4011 59.0992 96.9083 56.8613 98.403Z" fill="#FAFEE8"/>
<path d="M98.8489 99.1646C98.6087 99.859 98.3704 102.455 98.0975 103.406C97.8247 104.357 97.4866 105.408 96.334 106.054C95.5195 106.51 95.2446 106.693 94.7212 106.373C94.4259 106.178 94.1479 105.957 93.8904 105.713C96.0286 104.424 96.6721 102.252 96.4012 101.097C96.1304 99.9424 94.705 96.7189 89.443 97.3644C90.5915 96.2159 95.5114 96.3788 97.8858 96.7107C98.2136 96.7576 98.4967 96.8064 98.7003 96.8553C100.478 97.2626 99.0933 98.4702 98.8489 99.1646Z" fill="#DF9B52"/>
<path d="M98.849 99.1644C98.6087 99.8588 98.3704 102.455 98.0975 103.406C97.8247 104.357 97.4866 105.408 96.3341 106.053C95.5195 106.51 95.2446 106.693 94.7213 106.373C95.6652 105.788 96.3786 104.896 96.7413 103.846C97.3319 102.013 96.8655 99.4291 97.8858 96.7188C98.2136 96.7656 98.4967 96.8145 98.7003 96.8633C100.478 97.2625 99.0933 98.47 98.849 99.1644Z" fill="#D38A42"/>
<path d="M59.7509 98.0261C53.7436 99.5534 51.1981 102.14 51.6054 105.404C52.0127 108.668 56.12 110.024 63.1455 109.515C70.1709 109.006 73.9036 110.261 75.2272 110.839C76.5508 111.417 76.8563 111.924 76.0071 112.57C75.158 113.215 73.2723 113.264 72.138 112.747C71.0038 112.23 68.9145 111.822 67.5562 111.886C66.198 111.949 58.4272 112.163 54.0837 110.906C49.7401 109.65 46.9218 105.882 46.1072 104.39C45.2927 102.897 44.6818 102.15 47.1926 100.928C49.7034 99.7061 52.3609 98.7918 54.0877 98.5027C55.8146 98.2135 59.0117 97.289 59.7509 98.0261Z" fill="#DA873F"/>
<path d="M94.5726 40.2892C87.038 36.4099 81.1326 39.328 75.7077 43.1299C70.6046 46.7017 62.0213 50.4608 58.867 51.5136C58.6984 51.5723 58.5183 51.5904 58.3413 51.5663C58.1644 51.5422 57.9957 51.4767 57.8488 51.3751C52.9045 47.9133 55.2016 39.6681 55.2016 39.6681C55.2016 39.6681 53.9797 41.228 53.2324 42.4498C52.4851 43.6716 49.569 43.808 48.618 39.9389C48.5976 39.8575 48.5793 39.7781 48.5651 39.6966C47.8035 35.9069 50.972 32.1132 56.289 31.1154C52.4871 27.6536 52.76 22.8335 53.6417 21.9518C54.5235 21.07 55.6109 21.3409 57.8509 22.5627C60.0909 23.7845 61.9908 24.259 65.5198 25.0063C68.6743 25.6814 71.7307 26.7528 74.6162 28.1952C73.1236 25.1407 73.5981 24.1918 74.8199 24.5298C76.0417 24.8678 85.5332 29.1727 88.6508 31.708C94.2671 36.2735 94.5726 40.2892 94.5726 40.2892Z" fill="url(#paint5_linear_114_729)"/>
<path opacity="0.33" d="M57.9528 51.6828C55.3055 48.1863 55.0163 42.0263 57.4599 38.0045C55.6781 38.4627 54.4563 41.1609 53.6418 41.9754C52.8272 42.79 50.9762 42.3399 50.18 40.9084C49.0946 38.9575 51.6054 31.4393 59.5981 32.7629C57.5109 31.2173 52.929 26.4319 54.829 22.8336C59.5126 25.1408 63.2473 25.6845 66.9453 26.6009C70.6433 27.5173 75.2272 29.4518 76.0071 29.9955C75.8581 29.273 75.4621 28.625 74.8871 28.1628C74.8871 28.1628 78.4508 31.8282 80.4545 32.3027C78.5872 30.5718 76.5508 29.4864 75.8727 28.3664C75.4519 27.6661 75.0993 26.9268 74.8199 26.159C74.8199 26.159 77.7055 27.2118 82.9654 29.8245C88.2253 32.4371 92.1107 36.1372 92.9435 37.5972C93.7764 39.0573 94.0982 39.6682 94.0982 39.6682C94.0982 39.6682 93.8945 37.9373 93.5891 37.1554C93.2836 36.3734 85.6126 29.9263 85.1382 29.7226C84.6637 29.519 74.2436 24.3955 73.9036 24.5299C73.5635 24.6643 74.3455 27.2464 74.04 27.5519C73.7345 27.8573 66.7946 25.2773 64.2655 24.7336C61.7363 24.1898 59.0096 23.5117 58.2297 22.9701C57.4498 22.4284 54.5642 21.0681 53.5461 21.679C52.5279 22.2899 53.3424 27.3055 54.5296 28.9244C55.7168 30.5433 55.7718 30.6207 56.0325 30.8691C56.2931 31.1175 51.3488 32.8118 51.2389 32.9055C51.1289 32.9991 48.0479 37.2836 48.2861 38.7437C48.5244 40.2038 49.4428 42.0019 50.2553 42.7126C51.0678 43.4233 52.5503 43.0282 52.5503 43.0282L54.7333 40.0327L54.5989 43.2237C54.5989 43.2237 55.0387 47.7363 56.0915 49.4C57.1443 51.0637 57.2461 51.2673 57.2461 51.2673L57.9528 51.6828Z" fill="white"/>
<path d="M58.3254 51.479C56.9 46.5225 70.5436 37.0881 77.0599 36.748C75.5673 35.459 75.1254 36.1717 75.9053 35.1189C76.6853 34.0661 84.1872 33.5244 88.2945 35.9334C87.7508 35.5954 87.818 34.2372 89.3127 34.6098C90.8074 34.9825 93.2836 37.9372 94.0982 39.6681C90.3981 38.3099 85.0689 38.4463 83.5763 38.9554C82.0836 39.4645 71.5271 45.3353 69.3218 46.9644C67.1164 48.5935 59.9382 51.2917 59.8527 51.3772C59.7672 51.4627 58.3254 51.479 58.3254 51.479Z" fill="#88675F"/>
<path d="M114.122 41.5294C114.118 44.1016 113.339 46.613 111.886 48.7354C110.433 50.8578 108.373 52.4925 105.976 53.4258C104.821 50.4049 103.087 47.6382 100.873 45.2804C99.0272 43.3126 96.8999 41.6293 94.5604 40.2852C94.5604 40.2852 94.3568 37.477 90.9988 33.889C92.6076 31.7261 94.8568 30.1249 97.4271 29.3127C99.9974 28.5004 102.758 28.5185 105.318 29.3642C107.877 30.2099 110.105 31.8404 111.686 34.0241C113.266 36.2078 114.118 38.8338 114.122 41.5294Z" fill="#F3C16E"/>
<path opacity="0.63" d="M95.3363 40.2545C94.8537 37.0635 93.1228 34.3389 92.5119 33.8298C95.4116 31.2844 99.7145 28.8916 105.976 31.1581C112.238 33.4246 113.989 40.2545 113.989 40.2545C113.989 40.2545 113.582 33.7036 107.402 30.4454C101.221 27.1872 96.3036 29.4272 95.7436 29.7571C95.1836 30.087 91.4937 33.3207 91.3389 33.6771C91.1841 34.0334 92.2736 35.3347 92.6972 35.9883C93.1207 36.642 94.6989 40.4235 94.6989 40.4235L95.3363 40.2545Z" fill="#FAFEE8"/>
<path d="M106.526 39.9391C108.064 44.1584 106.526 46.4555 106.526 46.4555C106.526 46.4555 110.507 45.1827 111.984 42.2809C112.871 40.5159 113.292 38.5529 113.205 36.5791C113.205 36.5791 114.834 42.061 113.387 45.7855C111.939 49.51 107.554 52.7682 107.198 52.9718C106.842 53.1754 105.874 52.9209 105.62 52.3609C105.365 51.8009 102.158 47.27 101.242 45.8955C100.325 44.5209 106.526 39.9391 106.526 39.9391Z" fill="#C57B3C"/>
<path d="M106.994 42.293C106.995 43.5266 106.625 44.7318 105.932 45.7525C105.239 46.7732 104.256 47.5622 103.109 48.0172C102.431 47.0565 101.688 46.1434 100.885 45.2844C99.1383 43.42 97.1372 41.8111 94.9412 40.505C95.3697 39.0911 96.292 37.8783 97.5401 37.0877C98.7881 36.2971 100.279 35.9814 101.74 36.1981C103.202 36.4149 104.536 37.1496 105.501 38.2684C106.466 39.3872 106.997 40.8156 106.996 42.293H106.994Z" fill="#A15A2C"/>
<path d="M50.7909 33.7097C49.5692 32.21 48.028 31.0022 46.2798 30.1742C44.5317 29.3463 42.6207 28.9193 40.6864 28.9242C33.5307 28.9242 27.7291 34.6444 27.7291 41.7024C27.7384 44.2536 28.5107 46.7438 29.9466 48.8525C31.3826 50.9613 33.4166 52.5923 35.7869 53.5357C36.8051 50.7418 38.2489 47.9337 41.0163 45.1663C43.2392 42.9691 45.7849 41.1246 48.5651 39.6966C48.1293 37.5258 48.9846 35.3551 50.7909 33.7097Z" fill="#F3C16E"/>
<path d="M35.6363 39.2426C33.8035 42.6535 35.2636 46.4044 35.2636 46.4044C35.2636 46.4044 28.2891 44.1135 28.7982 37.4954C26.5582 43.4517 28.6454 46.4879 29.4091 47.9989C30.1727 49.5099 33.5327 52.1572 34.2108 52.5135C34.8889 52.8699 35.7727 53.3953 36.0435 52.7009C36.3144 52.0065 39.0981 46.9991 39.0981 46.9991L36.8255 39.3953L35.6363 39.2426Z" fill="#C57B3C"/>
<path d="M34.8868 42.1913C34.8867 43.4253 35.2575 44.631 35.951 45.6517C36.6446 46.6724 37.6289 47.4611 38.7763 47.9155C39.4548 46.9547 40.1985 46.0416 41.002 45.1827C42.7491 43.3183 44.7502 41.7094 46.9462 40.4034C46.5177 38.9895 45.5954 37.7766 44.3473 36.986C43.0993 36.1954 41.6086 35.8797 40.1472 36.0964C38.6858 36.3132 37.3509 37.048 36.3861 38.1668C35.4212 39.2856 34.8906 40.7139 34.8909 42.1913H34.8868Z" fill="#A15A2C"/>
<path d="M132.435 101.276C129.494 106.335 123.931 107.355 123.082 107.495C123.506 109.972 123.506 112.502 123.082 114.979C120.734 128.337 95.7944 145.932 73.6999 136.972C72.1971 138.033 57.6127 149.469 33.9909 135.037C13.8309 122.717 13.4399 108.638 13.9327 104.899C13.9327 104.899 13.8146 104.868 13.6089 104.801C12.3138 104.394 7.49985 102.573 5.95629 98.2136C3.77534 92.0801 7.02945 84.4396 14.2626 82.4297C15.8181 81.993 17.4347 81.8142 19.0481 81.9003C24.312 82.1956 29.3765 85.4802 31.0463 93.0188C34.2454 92.5097 38.5564 92.1717 41.505 94.6825C43.7634 96.6089 44.5087 98.0161 45.3558 101.777C45.3782 101.869 45.3986 101.963 45.4189 102.056C46.9218 108.87 53.098 111.483 58.3254 111.755C63.5527 112.028 68.3708 111.483 71.1545 112.433C73.9382 113.384 75.7485 113.49 76.7545 111.823C79.0963 112.637 79.9108 111.314 80.1144 109.955C82.6253 109.955 81.5908 107.19 81.5908 107.19C81.7619 107.058 81.937 106.931 82.1162 106.809C82.3578 106.639 82.6083 106.48 82.8676 106.331C86.415 104.251 91.3205 103.726 95.1163 106.799C97.898 106.324 98.293 103.471 98.3908 101.692C98.4912 99.988 99.0049 98.3344 99.8875 96.8737C101.449 94.3669 104.545 92.1656 110.558 92.8844C111.202 90.0335 112.348 87.1378 114.551 85.1218C118.046 81.9227 123.014 81.5215 127.057 83.4459C128.262 84.0146 129.364 84.7822 130.315 85.7164C134.689 90.0335 135.143 96.6212 132.435 101.276Z" fill="#EDF9FA"/>
<path d="M129.258 97.7045C126.68 102.388 120.298 103.474 120.298 103.474C120.298 103.474 120.705 108.361 115.614 117.661C110.523 126.961 96.4725 127.977 96.4725 127.977C96.4725 127.977 74.3455 129.606 74.2762 129.81C74.207 130.013 57.5781 135.919 45.4291 133.137C33.2802 130.356 18.486 115.661 17.0545 112.366C15.6229 109.071 14.34 104.559 14.34 104.559L13.6089 104.801C12.3138 104.394 7.49985 102.573 5.95629 98.2136C3.77534 92.0801 7.02945 84.4396 14.2626 82.4297C15.8181 81.993 17.4347 81.8142 19.0481 81.9003C24.312 82.1956 29.3765 85.4802 31.0463 93.0188C34.2454 92.5097 38.5564 92.1717 41.505 94.6825C43.7634 96.6089 44.5087 98.0161 45.3558 101.777C45.3782 101.869 45.3986 101.963 45.4189 102.056C46.9218 108.87 53.098 111.483 58.3254 111.755C63.5527 112.028 68.3708 111.483 71.1545 112.433C73.9382 113.384 75.7485 113.49 76.7545 111.823C79.0963 112.637 79.9108 111.313 80.1145 109.955C82.6253 109.955 81.5908 107.19 81.5908 107.19C81.7619 107.058 81.937 106.931 82.1162 106.809C82.3578 106.639 82.6083 106.48 82.8676 106.331C86.415 104.251 91.3205 103.726 95.1163 106.799C97.898 106.324 98.2931 103.471 98.3908 101.692C98.4912 99.988 99.0049 98.3344 99.8875 96.8737C101.449 94.3669 104.545 92.1656 110.558 92.8844C111.202 90.0335 112.348 87.1378 114.551 85.1218C118.046 81.9227 123.014 81.5215 127.057 83.4459C131.522 86.9545 131.724 93.2286 129.258 97.7045Z" fill="#FFFFFD"/>
<path d="M81.1326 113.12C78.2145 115.767 68.7108 117.457 59.7508 115.284C50.7908 113.112 44.749 108.835 43.6636 103.473C42.5782 98.1117 40.4726 94.9208 37.6909 94.1734C34.3941 93.2896 31.7162 92.919 27.9836 94.4789C27.9836 89.5916 24.5218 82.9734 19.0908 82.0245L19.048 81.9003C24.312 82.1955 29.3765 85.4802 31.0463 93.0188C34.2454 92.5097 38.5564 92.1717 41.505 94.6825C43.7634 96.6089 44.5087 98.016 45.3558 101.777C45.3782 101.869 45.3986 101.962 45.4189 102.056C46.9218 108.87 53.098 111.482 58.3254 111.755C63.5527 112.028 68.3708 111.482 71.1545 112.433C73.9382 113.384 75.7485 113.49 76.7545 111.823C79.0963 112.637 79.9108 111.313 80.1144 109.955C82.6253 109.955 81.5908 107.19 81.5908 107.19C81.7619 107.057 81.937 106.931 82.1162 106.809C82.611 108.78 82.8696 111.537 81.1326 113.12Z" fill="#DAF1F9"/>
<path d="M14.34 104.559C14.34 104.559 17.4617 116.166 30.36 123.159C43.2583 130.152 64.0272 136.462 76.1089 123.09C80.5217 129.335 94.0981 129.879 107.402 121.053C120.705 112.228 117.447 103.473 117.447 103.473C132.653 99.9444 130.142 88.9481 130.005 87.4534C134.119 95.0571 130.502 103.767 120.705 105.984C122.674 113.384 116.769 124.142 104.754 131.066C92.7399 137.99 80.369 135.104 75.8625 133.001C65.3854 138.702 56.8999 139.924 40.7108 133.408C24.5218 126.892 16.1727 115.624 14.34 104.559Z" fill="#DAF1F9"/>
<path opacity="0.63" d="M47.8137 39.939C47.1763 36.9353 48.221 35.0008 49.288 33.8299C45.6491 30.5473 40.9492 29.0098 35.0437 31.4209C29.1383 33.8319 28.0183 40.5152 28.0183 40.5152C28.0183 40.5152 27.78 36.9862 30.9364 33.388C34.0927 29.7897 40.7455 28.4681 43.1892 28.8754C45.6328 29.2827 49.7055 32.5409 49.9763 33.219C50.2472 33.8971 49.8969 34.6444 49.7157 34.899C49.5345 35.1535 48.4145 39.8718 48.1436 40.0062C47.8728 40.1406 47.8137 39.939 47.8137 39.939Z" fill="#FAFEE8"/>
<path d="M81.3363 105.663L81.9981 106.528" stroke="#FF0000" stroke-width="0.51285" stroke-miterlimit="10"/>
<path d="M130.661 85.35C129.674 84.3755 128.529 83.5748 127.275 82.9817C122.821 80.8619 117.691 81.5563 114.207 84.7432C112.307 86.4802 110.984 88.9646 110.165 92.3266C109.575 92.2675 109.013 92.239 108.477 92.235C108.766 91.0926 109.404 88.7731 110.245 86.8936C110.448 86.6024 110.642 86.2827 110.841 85.9568C113.132 82.1061 114.044 77.4876 112.503 74.6469C112.681 74.7085 112.865 74.7561 113.051 74.7894C113.665 74.8884 114.294 74.8571 114.896 74.6978C115.479 74.5514 116.031 74.301 116.525 73.9586C115.914 73.9016 115.346 73.9179 114.796 73.9057C114.592 73.9057 114.374 73.9057 114.167 73.8853C114.832 73.779 115.453 73.4858 115.958 73.0397C116.463 72.5937 116.83 72.0133 117.017 71.3663C117.057 71.246 117.05 71.1154 116.999 70.9997C116.948 70.8839 116.856 70.7911 116.741 70.7391C116.049 70.4088 115.404 69.9883 114.822 69.4888C114.224 68.9828 113.668 68.4291 113.159 67.8332C112.129 66.6259 111.234 65.3101 110.489 63.9092C110.112 63.2087 109.768 62.4837 109.458 61.7588C109.149 61.0338 108.882 60.2783 108.622 59.5188C108.104 57.9935 107.642 56.4357 107.102 54.884C106.964 54.4869 106.821 54.0898 106.671 53.6948C108.506 52.8791 110.133 51.6583 111.429 50.124C112.726 48.5897 113.658 46.7817 114.155 44.8357C114.653 42.8897 114.703 40.8562 114.302 38.888C113.902 36.9198 113.06 35.0679 111.842 33.4713C110.623 31.8747 109.058 30.5749 107.265 29.6695C105.472 28.7641 103.498 28.2765 101.489 28.2435C99.4809 28.2104 97.4912 28.6326 95.6694 29.4785C93.8476 30.3244 92.2411 31.5719 90.9704 33.1275C90.338 32.4901 89.6719 31.8871 88.9747 31.3213C85.8163 28.7392 76.2963 24.4119 74.9564 24.0392C74.093 23.801 73.6572 24.137 73.4719 24.3569C73.0382 24.8803 73.0646 25.7824 73.5982 27.1447C71.0442 25.9769 68.3711 25.0893 65.6258 24.4974C62.052 23.7419 60.26 23.2858 58.0913 22.1067C56.1323 21.0376 54.5358 20.3208 53.2773 21.5814C52.8089 22.0497 52.5483 23.0862 52.5768 24.3528C52.6631 26.7642 53.6202 29.0625 55.2709 30.8224C53.6595 31.2235 52.1518 31.9628 50.8479 32.9911C49.5788 31.5471 48.0155 30.3914 46.2629 29.6015C44.5102 28.8116 42.6089 28.4058 40.6865 28.4113C33.2599 28.4113 27.216 34.3738 27.216 41.7026C27.2174 44.2746 27.9682 46.7904 29.3764 48.9425C30.7846 51.0946 32.7894 52.7899 35.1456 53.821C35.0967 53.9554 35.0498 54.0919 35.003 54.2283C34.4552 55.8431 34.0072 57.4743 33.5002 59.0647C33.0025 60.6513 32.3998 62.203 31.696 63.7096C31.0118 65.2018 30.1206 66.59 29.0487 67.8332C27.987 69.0502 26.6588 70.0056 25.1674 70.6251C25.0499 70.6737 24.9552 70.765 24.9023 70.8806C24.8494 70.9962 24.8423 71.1275 24.8823 71.2482C24.9723 71.6368 25.1437 72.0019 25.3853 72.3193C25.6356 72.6479 25.9573 72.9153 26.3261 73.1013C26.6792 73.2762 27.0604 73.3872 27.4522 73.4292C27.7015 73.4585 27.9529 73.4667 28.2036 73.4536C27.8961 73.535 27.5927 73.6043 27.2669 73.6572C26.6376 73.7548 26.0032 73.8167 25.3669 73.8425C25.9493 74.2058 26.6141 74.4159 27.2995 74.4534C27.9911 74.4946 28.6839 74.3948 29.3358 74.1602C29.4885 74.1052 29.6372 74.0441 29.7838 73.9769C27.7474 77.286 28.7147 81.8495 31.0382 85.7573C31.1482 85.9406 31.2561 86.1157 31.3661 86.2847C31.8039 87.6511 32.48 90.0194 32.7264 92.2777C32.2885 92.3246 31.8548 92.3816 31.4353 92.4447C30.5922 89.0033 29.008 86.2827 26.7232 84.3542C24.5665 82.5577 21.8807 81.517 19.0766 81.3913C17.411 81.3033 15.7423 81.4884 14.1364 81.9391C12.4593 82.4049 10.8952 83.2087 9.54015 84.3011C8.18508 85.3935 7.06766 86.7514 6.25656 88.2914C5.44545 89.8314 4.95778 91.521 4.82351 93.2564C4.68924 94.9918 4.9112 96.7363 5.47576 98.3827C7.07023 102.863 11.8414 104.757 13.3809 105.26C13.2221 106.982 13.1773 111.383 15.7553 116.962C18.9748 123.923 25.0208 130.15 33.7262 135.469C41.6884 140.336 49.4062 142.786 56.7371 142.786C58.3822 142.786 60.025 142.66 61.6508 142.409C64.7685 141.924 69.389 140.688 73.7713 137.546C77.8033 139.124 82.0974 139.926 86.4272 139.908C93.1656 139.908 100.15 138.061 106.703 134.432C115.773 129.409 122.4 121.807 123.585 115.067C123.994 112.699 124.021 110.281 123.664 107.905C125.631 107.497 130.235 106.072 132.877 101.533C135.876 96.3728 134.946 89.5673 130.661 85.35ZM101.293 29.2605C104.111 29.2482 106.847 30.2067 109.041 31.9749C111.235 33.743 112.753 36.2129 113.34 38.9689C113.927 41.725 113.547 44.5991 112.264 47.1079C110.98 49.6166 108.872 51.6068 106.294 52.7438C105.954 51.9292 105.581 51.1147 105.162 50.3266C104.382 48.8593 103.454 47.4755 102.392 46.1969C100.349 43.7342 97.8919 41.6474 95.1307 40.0308L95.039 39.9738C95.0166 39.8455 94.982 39.6724 94.9291 39.4626C94.9291 39.4423 94.9168 39.4219 94.9128 39.4015L94.8883 39.3099L94.8313 39.1063V39.0839C94.8171 39.0391 94.8028 38.9922 94.7865 38.9454V38.9312C94.4444 37.8845 93.7195 36.2839 92.1901 34.4512L92.1291 34.3778C92.068 34.3025 92.0048 34.2292 91.9397 34.1538L91.8379 34.0378L91.6851 33.8606C92.8361 32.4191 94.2981 31.2565 95.9619 30.4598C97.6257 29.6632 99.4481 29.2532 101.293 29.2605ZM56.6332 30.7389C55.7223 29.9317 54.9841 28.9486 54.463 27.8486C53.9419 26.7487 53.6487 25.5548 53.6011 24.3386C53.5746 23.1819 53.8332 22.4814 54.0084 22.3124C54.5643 21.7565 55.2444 21.7178 57.6127 23.0088C59.8853 24.249 61.828 24.7438 65.4201 25.5054C68.532 26.1723 71.5473 27.2294 74.3944 28.6516L75.7404 29.3236L75.0806 27.9715C73.8792 25.5136 74.2661 25.0126 74.2661 25.0085C74.2946 24.9739 74.431 24.9475 74.6937 25.0208C75.9644 25.3731 85.3459 29.6677 88.3374 32.1032C92.0944 35.1578 93.3977 37.9598 93.8355 39.371C86.5494 36.1128 80.6786 39.0248 75.4105 42.7127C70.4581 46.1745 62.0276 49.9132 58.7001 51.0312C58.6077 51.0641 58.5087 51.0746 58.4113 51.0619C58.314 51.0492 58.2211 51.0135 58.1401 50.9579C53.5502 47.7404 55.6721 39.8842 55.6965 39.8048L56.3807 37.3428L54.8046 39.3547C54.7537 39.4199 53.5563 40.9512 52.8028 42.1853C52.5687 42.5661 52.0046 42.7717 51.4324 42.6821C50.9274 42.6047 49.6933 42.169 49.115 39.8149C49.1007 39.76 49.0865 39.7029 49.0743 39.6398C49.0743 39.6256 49.0743 39.6113 49.0743 39.595C48.6833 37.6503 49.4367 35.6424 51.1412 34.0968L51.1636 34.0724C52.4852 32.8791 54.3097 32.0136 56.3889 31.6288L57.3948 31.4394L56.6332 30.7389ZM28.2423 41.7026C28.2423 34.9399 33.824 29.4376 40.6865 29.4376C42.4652 29.4313 44.2246 29.8061 45.8464 30.5367C47.4681 31.2673 48.9146 32.3368 50.0884 33.6733C49.9377 33.826 49.7972 33.9848 49.6628 34.1437L49.6465 34.164C49.5589 34.2659 49.4754 34.3677 49.394 34.4776L49.3736 34.5061C49.2922 34.612 49.2148 34.72 49.1415 34.8299V34.8421C49.0824 34.9297 49.0254 35.0193 48.9704 35.1089C48.9704 35.1191 48.9562 35.1313 48.948 35.1435C48.8951 35.2311 48.8442 35.3186 48.7953 35.4082L48.7749 35.4469C48.6502 35.6755 48.538 35.9107 48.4389 36.1515L48.3595 36.3552L48.3167 36.4753C48.2903 36.5547 48.2638 36.6321 48.2394 36.7115L48.2088 36.8154C48.1823 36.9029 48.1599 36.9905 48.1375 37.0781C48.1375 37.1066 48.1253 37.1351 48.1172 37.1636C48.0941 37.2654 48.0737 37.3672 48.0561 37.469C48.0561 37.4853 48.0561 37.4996 48.0459 37.5159C48.0051 37.7523 47.9786 37.991 47.9665 38.2306C47.9665 38.2734 47.9665 38.3182 47.9665 38.363C47.9665 38.4078 47.9665 38.4974 47.9665 38.5666C47.9665 38.6359 47.9665 38.6949 47.9665 38.7601C47.9665 38.8253 47.9665 38.8456 47.9665 38.8904C47.9665 38.9698 47.9665 39.0513 47.9828 39.1307C47.9828 39.145 47.9828 39.1592 47.9828 39.1735C47.9828 39.2509 47.997 39.3303 48.0072 39.4097C46.231 40.3561 44.5476 41.4674 42.9794 42.729L42.9469 42.7554C42.1507 43.3937 41.3887 44.0734 40.6641 44.7918C38.3804 47.0685 36.6202 49.8155 35.506 52.8415C33.3489 51.8846 31.515 50.3235 30.226 48.3468C28.937 46.3701 28.248 44.0625 28.2423 41.7026ZM33.044 88.4351C35.2168 90.6751 36.9681 90.5081 36.9681 90.5081C36.9681 90.5081 31.7856 86.7083 30.4273 80.5299C29.6433 76.9602 30.4008 74.5044 31.1787 73.0646C31.6668 72.6303 32.0581 72.0981 32.3272 71.5028L32.0747 71.6514C31.5063 71.8516 30.9262 72.0168 30.3377 72.1462C29.7309 72.2889 29.1116 72.3714 28.4887 72.3926C28.1969 72.3978 27.9052 72.3767 27.6171 72.3295C27.3518 72.2835 27.0946 72.1991 26.8535 72.079C26.5289 71.9109 26.257 71.6565 26.0674 71.3439C27.4964 70.663 28.7719 69.6986 29.8164 68.5093C30.9487 67.1944 31.8894 65.7259 32.6103 64.1474C33.3346 62.5996 33.9544 61.0049 34.4654 59.3742C34.9826 57.7553 35.4286 56.1343 35.9621 54.5562C36.0558 54.2792 36.1556 54.0063 36.2554 53.7416V53.7233C36.459 53.1775 36.685 52.5911 36.9579 51.9741C36.9742 51.9374 36.9905 51.9028 37.0047 51.8682L37.1901 51.4609L37.2328 51.3713C37.3041 51.2226 37.3774 51.076 37.4527 50.9253V50.907C38.3878 49.0595 39.5945 47.3627 41.0327 45.8731C41.1976 45.7021 41.3646 45.533 41.5336 45.3681C41.7026 45.2031 41.8167 45.0932 41.9592 44.9608C42.1018 44.8285 42.226 44.7124 42.3665 44.5902C42.5375 44.4354 42.7106 44.2807 42.8858 44.13L43.1892 43.8734C43.403 43.6962 43.6188 43.517 43.8388 43.3439L44.018 43.2055C44.2766 43.0018 44.5373 42.7982 44.804 42.6129L44.8549 42.5783C45.9295 41.8042 47.0525 41.0995 48.217 40.4686C48.9928 43.065 50.5852 43.5924 51.2572 43.6962C52.2408 43.849 53.204 43.458 53.652 42.7229C53.8373 42.4215 54.0593 42.0957 54.2731 41.78C53.9228 44.578 53.9656 49.2942 57.5313 51.801C57.8056 51.9916 58.1319 52.0932 58.466 52.0922C58.6481 52.0923 58.829 52.0627 59.0015 52.0046C62.3799 50.8703 70.9387 47.0766 75.9705 43.5557C81.821 39.4606 87.0952 37.3632 93.6278 40.4157L93.917 40.5562C94.0392 40.6152 94.1593 40.6722 94.2815 40.7354L94.3996 40.8066C97.1176 42.3942 99.5311 44.4532 101.527 46.8872C102.537 48.1162 103.423 49.4415 104.174 50.8439C104.91 52.2608 105.535 53.7327 106.044 55.2465C106.571 56.7636 107.033 58.3214 107.559 59.8731C107.821 60.6449 108.106 61.4268 108.432 62.1905C108.758 62.9541 109.12 63.6974 109.516 64.4305C110.304 65.8965 111.25 67.2724 112.336 68.5337C112.885 69.1696 113.484 69.7607 114.128 70.3013C114.66 70.7474 115.235 71.1396 115.845 71.4722C115.687 71.8121 115.456 72.1127 115.168 72.3519C114.752 72.6772 114.252 72.8777 113.727 72.9302C113.451 72.9593 113.173 72.9729 112.896 72.971C112.607 72.9762 112.318 72.9653 112.03 72.9384C111.423 72.8749 110.825 72.7438 110.247 72.5474C110.463 73.0837 110.804 73.5606 111.242 73.9382C111.766 75.1417 112.193 77.2718 111.432 80.7377C110.073 86.916 104.891 90.7158 104.891 90.7158C104.891 90.7158 106.365 90.8502 108.286 89.1499C107.858 90.4613 107.55 91.6485 107.4 92.2716C103.187 92.5241 100.883 94.4668 99.6208 96.326C97.5539 96.0226 91.9743 95.4158 87.8934 96.9369C84.9407 98.0284 82.9145 99.4314 81.7273 100.773C80.0696 101.171 78.3716 101.376 76.667 101.384C75.4419 100.625 74.1552 99.9706 72.8203 99.4274C68.8646 97.8347 64.6222 97.0776 60.3598 97.2037C55.3687 97.3401 50.4346 98.6291 45.6837 101.042C44.8692 97.6293 44.0017 96.1753 41.8146 94.31C39.5237 92.3571 36.5201 92.0232 33.7221 92.2044C33.5822 90.934 33.3557 89.6746 33.044 88.4351ZM98.9712 97.4847C98.9366 97.556 98.902 97.6272 98.8694 97.6883C98.8368 97.7494 98.8226 97.7922 98.8002 97.8451C98.7778 97.8981 98.7391 97.9856 98.7106 98.0488C98.6821 98.1119 98.6678 98.1506 98.6475 98.2035C98.6271 98.2565 98.5945 98.342 98.568 98.4072L98.513 98.5558L98.4397 98.7595C98.4255 98.8043 98.4092 98.8491 98.397 98.8939C98.3712 98.9726 98.3467 99.052 98.3237 99.1321L98.2931 99.2319C98.2626 99.3419 98.2341 99.4518 98.2056 99.5598C98.2056 99.5801 98.2056 99.6005 98.1913 99.6229C98.1709 99.7084 98.1506 99.7919 98.1322 99.8754L98.1078 99.9833C98.0956 100.048 98.0813 100.114 98.0691 100.187C98.0569 100.26 98.0549 100.262 98.0467 100.301L98.0162 100.472C98.0162 100.509 98.004 100.545 97.9999 100.582C97.9958 100.619 97.9816 100.688 97.9755 100.739C97.9693 100.79 97.9653 100.808 97.9612 100.841C97.9571 100.873 97.9469 100.94 97.9408 100.989C97.9347 101.038 97.9408 101.048 97.9408 101.077C97.9408 101.105 97.9408 101.173 97.9266 101.219C97.9123 101.266 97.9266 101.268 97.9266 101.291C97.9266 101.313 97.9266 101.386 97.9266 101.429C97.9256 101.446 97.9256 101.463 97.9266 101.48C97.9266 101.539 97.9266 101.594 97.9144 101.643C97.8186 103.384 97.4379 105.716 95.2793 106.233C95.151 106.135 95.0227 106.039 94.8944 105.95L94.76 105.858L94.4709 105.714L94.31 105.616L94.0758 105.475L93.9007 105.38C93.8253 105.339 93.75 105.296 93.6747 105.257L93.4934 105.168L93.2735 105.062L93.0862 104.979L92.8662 104.887L92.6768 104.812L92.4589 104.732L92.2553 104.665L92.0374 104.596L91.8338 104.539L91.6179 104.48C91.5528 104.463 91.4876 104.445 91.4143 104.431L91.2005 104.382L90.9968 104.339L90.783 104.3L90.5794 104.268C90.5081 104.256 90.4368 104.247 90.3758 104.237C90.3147 104.227 90.2434 104.219 90.1721 104.213L89.9685 104.192L89.7648 104.174C89.6956 104.174 89.6243 104.174 89.5612 104.162L89.3576 104.15H89.1539C88.8057 104.15 88.4575 104.15 88.1134 104.178H88.0747C87.9484 104.188 87.8222 104.199 87.6959 104.213H87.6267C87.5126 104.227 87.3966 104.239 87.2825 104.256L87.197 104.27C87.0891 104.286 86.9811 104.302 86.8753 104.323L86.7734 104.341L86.472 104.4L86.3641 104.425C86.2664 104.447 86.1605 104.467 86.075 104.492L85.9609 104.52C85.8693 104.545 85.7756 104.567 85.684 104.594L85.5659 104.628L85.2991 104.706L85.179 104.744C85.0934 104.773 85.0079 104.799 84.9244 104.83L84.7982 104.873L84.5558 104.96L84.4275 105.011L84.1974 105.103L84.0651 105.158L83.8492 105.251L83.7148 105.312L83.5112 105.408L83.3747 105.475L83.1833 105.571L83.0428 105.646L82.8657 105.742L82.8249 105.762C82.7344 105.727 82.6527 105.672 82.5856 105.602C82.5184 105.531 82.4674 105.447 82.436 105.355L82.4156 105.268C82.3986 105.124 82.3986 104.978 82.4156 104.834C82.4528 104.595 82.5142 104.361 82.5989 104.135C82.6835 103.895 82.7842 103.661 82.9003 103.435C83.015 103.203 83.1414 102.976 83.279 102.757C83.0754 102.922 82.8717 103.099 82.6926 103.286C82.5076 103.474 82.3335 103.673 82.1712 103.881C82.0024 104.09 81.8538 104.314 81.7273 104.551C81.5482 104.218 81.4604 103.843 81.4728 103.465C81.4728 102.272 83.3177 99.6982 88.2681 97.8675C91.8847 96.5296 96.8208 96.9613 99.0771 97.2566C99.0771 97.2749 99.0588 97.2953 99.0486 97.3157L98.9712 97.4847ZM81.8291 106.39C81.7295 106.18 81.6187 105.976 81.4972 105.779L81.5379 105.809C81.6261 106.007 81.7504 106.187 81.9045 106.339C81.8739 106.359 81.8495 106.373 81.8291 106.39ZM80.4851 109.418C80.4281 109.263 80.365 109.116 80.2958 108.974C80.1539 108.694 79.9898 108.425 79.805 108.172C79.6229 107.921 79.4185 107.688 79.1941 107.475C78.9815 107.256 78.7246 107.086 78.4406 106.974C78.6702 107.152 78.8591 107.377 78.9945 107.634C79.1361 107.882 79.2547 108.142 79.3489 108.412C79.4438 108.677 79.5167 108.949 79.5667 109.226C79.6018 109.428 79.6168 109.633 79.6115 109.837V109.88C79.5342 110.389 79.3346 111.061 78.8194 111.373C78.4447 111.599 77.9214 111.623 77.2657 111.446C77.2496 111.21 77.1974 110.978 77.1109 110.758C76.9698 110.421 76.769 110.113 76.5183 109.847C76.2887 109.595 76.0327 109.369 75.7547 109.171C75.4874 108.976 75.2048 108.803 74.9096 108.654C75.1513 108.87 75.3754 109.105 75.5795 109.357C75.7803 109.599 75.9557 109.862 76.1029 110.141C76.2426 110.393 76.3345 110.669 76.3737 110.955C76.397 111.165 76.3726 111.377 76.3025 111.576C75.5327 112.821 74.1785 112.92 71.3195 111.943C71.2095 111.906 71.0955 111.872 70.9794 111.837L70.8593 111.804L70.621 111.743L70.4744 111.711C70.399 111.692 70.3257 111.676 70.2484 111.662L70.0854 111.631L69.8594 111.591L69.6884 111.564L69.4562 111.529L69.275 111.507L69.0326 111.479L68.8514 111.458L68.5643 111.434L68.2181 111.407L67.9941 111.391L67.7355 111.377L67.5318 111.367H67.2549H67.0655H66.7723H66.5951H66.2795H66.1288H65.7765H65.7093C65.0455 111.367 64.3572 111.367 63.6444 111.367H62.3554C61.0562 111.367 59.7224 111.35 58.3438 111.279C58.1849 111.271 58.0261 111.261 57.8673 111.248L57.627 111.226L57.3867 111.204L57.0975 111.167L56.8939 111.143C56.7961 111.13 56.6903 111.114 56.6007 111.1L56.4092 111.069L56.118 111.016L55.9144 110.982L55.6293 110.921L55.4257 110.878C55.332 110.857 55.2383 110.833 55.1467 110.811L54.9431 110.76L54.6743 110.684L54.4584 110.625C54.3708 110.601 54.2853 110.572 54.1978 110.544L53.9758 110.475C53.8903 110.448 53.8068 110.418 53.7212 110.387L53.4972 110.31L53.2508 110.214L53.0248 110.128C52.9434 110.096 52.8639 110.059 52.7825 110.025L52.5564 109.929C52.477 109.894 52.3996 109.856 52.3202 109.819L52.0942 109.713L51.8661 109.597L51.6421 109.481L51.4202 109.357L51.1962 109.23L50.9925 109.098C50.9192 109.053 50.8439 109.008 50.7726 108.962C50.7013 108.915 50.6341 108.87 50.569 108.823C50.5038 108.776 50.4223 108.725 50.3511 108.674L50.1474 108.53L49.9336 108.371L49.7422 108.216C49.673 108.161 49.6017 108.106 49.5386 108.047L49.3512 107.884C49.286 107.825 49.2168 107.766 49.1476 107.705C49.0783 107.644 49.0274 107.591 48.9684 107.534C48.9093 107.477 48.838 107.41 48.7647 107.345C48.6914 107.28 48.6507 107.225 48.5937 107.164C48.5367 107.102 48.4695 107.033 48.4084 106.96C48.3473 106.887 48.2984 106.834 48.2455 106.771C48.1925 106.707 48.1253 106.632 48.0683 106.567C48.0113 106.502 47.9644 106.432 47.9135 106.363C47.8626 106.294 47.7995 106.217 47.7445 106.141C47.6895 106.066 47.6468 106.003 47.5999 105.938C47.5531 105.872 47.492 105.787 47.4411 105.708C47.3902 105.628 47.3495 105.561 47.3026 105.488C47.2558 105.414 47.2028 105.329 47.156 105.247C47.1092 105.166 47.0705 105.093 47.0277 105.015C46.985 104.938 46.9361 104.85 46.8913 104.765C46.8465 104.679 46.8119 104.604 46.7732 104.522C46.7345 104.441 46.6876 104.351 46.649 104.264C46.6103 104.176 46.5756 104.093 46.539 104.007C46.5023 103.922 46.4636 103.83 46.427 103.738C46.3903 103.647 46.3618 103.561 46.3292 103.472C46.2967 103.382 46.2621 103.288 46.2295 103.193C46.1969 103.097 46.1724 103.007 46.1439 102.914C46.1154 102.82 46.0828 102.722 46.0564 102.624C46.0299 102.527 46.0075 102.431 45.9831 102.333C45.9586 102.236 45.9403 102.168 45.9199 102.085C58.1524 95.7721 68.5236 98.79 72.4354 100.391C77.2779 102.372 80.2001 105.196 80.9881 107.111L81.0961 107.402C81.2101 107.713 81.4341 108.624 81.0961 109.11C80.9393 109.287 80.7207 109.397 80.4851 109.418ZM80.6521 104.655C79.8955 103.79 79.0436 103.013 78.1128 102.339C79.0405 102.275 79.9638 102.159 80.8782 101.989C80.6195 102.443 80.4742 102.952 80.4546 103.474C80.4496 103.876 80.5165 104.276 80.6521 104.655ZM131.995 101.03C129.25 105.752 124.018 106.834 122.998 107.003L122.495 107.086L122.581 107.591C122.996 110.01 122.996 112.483 122.581 114.902C121.447 121.351 115.02 128.672 106.208 133.553C99.8061 137.098 92.9945 138.9 86.4252 138.9C82.1322 138.919 77.876 138.108 73.8914 136.51L73.6328 136.406L73.4068 136.567L73.2479 136.681C68.3423 140.226 54.717 147.121 34.2557 134.614C25.7253 129.401 19.8117 123.322 16.6798 116.547C13.9592 110.666 14.2749 106.202 14.4398 104.976L14.4968 104.531L14.0631 104.416C14.0631 104.416 13.9491 104.386 13.7658 104.327C12.4177 103.893 7.90107 102.162 6.43489 98.0528C5.91656 96.5388 5.71302 94.9349 5.83676 93.3394C5.9605 91.7439 6.4089 90.1905 7.15446 88.7745C7.90001 87.3586 8.92701 86.1098 10.1724 85.1049C11.4179 84.1001 12.8555 83.3602 14.3971 82.9308C15.6493 82.5798 16.9433 82.4003 18.2437 82.3973C18.5024 82.3973 18.761 82.3973 19.0176 82.4197C24.9088 82.7496 29.1118 86.6574 30.5474 93.1391L30.6513 93.6075L31.1237 93.5321C34.3534 93.019 38.4119 92.7298 41.1732 95.0798C43.2095 96.8168 43.9386 98.0488 44.7124 101.278L44.8651 101.908C44.8875 101.995 44.9058 102.085 44.9262 102.176C46.4718 109.188 52.8497 111.99 58.3031 112.275C59.702 112.346 61.0501 112.36 62.3615 112.362H63.6607C66.6745 112.352 69.277 112.344 70.9916 112.93L71.4233 113.073C71.5659 113.12 71.7084 113.165 71.851 113.205C71.9935 113.246 72.134 113.287 72.2745 113.324C72.413 113.36 72.5515 113.395 72.6818 113.425H72.694C72.8284 113.456 72.9628 113.482 73.1013 113.507H73.1176C73.25 113.531 73.3803 113.552 73.5106 113.57H73.5289C73.6572 113.586 73.7835 113.598 73.9097 113.609H73.9321C74.0564 113.609 74.1806 113.621 74.3007 113.621H74.5206H74.5777H74.7121H74.7691L74.8974 113.607H74.9544L75.0806 113.588L75.1438 113.574C75.1825 113.574 75.2232 113.56 75.2619 113.55L75.327 113.533L75.437 113.503L75.5083 113.48L75.6081 113.448L75.6834 113.417C75.7139 113.405 75.7465 113.395 75.7771 113.381L75.8545 113.344L75.94 113.303C75.9685 113.289 75.997 113.275 76.0235 113.258L76.1009 113.218L76.1884 113.161L76.2556 113.118L76.3432 113.053L76.4043 113.008C76.4349 112.985 76.4641 112.961 76.4918 112.935L76.5489 112.888L76.6466 112.796L76.6894 112.753C76.724 112.719 76.7566 112.682 76.7891 112.645L76.8238 112.609C76.8686 112.559 76.9113 112.506 76.952 112.45C77.2217 112.525 77.4979 112.574 77.7768 112.597C78.3179 112.657 78.8643 112.544 79.3366 112.273C79.9211 111.918 80.3283 111.299 80.5279 110.469C80.8085 110.45 81.0816 110.37 81.3279 110.234C81.5742 110.098 81.7877 109.91 81.9534 109.682C81.9911 109.627 82.0258 109.57 82.0572 109.511L82.0816 109.461C82.104 109.416 82.1244 109.373 82.1427 109.328C82.1611 109.283 82.157 109.294 82.1631 109.275C82.1858 109.216 82.2055 109.155 82.2222 109.094C82.2384 109.031 82.2507 108.97 82.2629 108.907C82.2629 108.888 82.2629 108.872 82.2629 108.854L82.2812 108.713V108.66C82.2812 108.599 82.2812 108.538 82.2812 108.477C82.2812 108.416 82.2812 108.355 82.2812 108.294C82.2802 108.277 82.2802 108.261 82.2812 108.245C82.2812 108.2 82.2812 108.155 82.2812 108.11C82.2822 108.095 82.2822 108.079 82.2812 108.064C82.271 107.948 82.2547 107.838 82.2364 107.736V107.699L82.212 107.583V107.548C82.212 107.502 82.1916 107.457 82.1794 107.416C82.2527 107.363 82.326 107.31 82.4054 107.257C82.6294 107.1 82.8697 106.948 83.1222 106.801C83.8184 106.395 84.5539 106.061 85.3174 105.803C85.4803 105.748 85.6473 105.697 85.8143 105.648C85.9813 105.6 86.187 105.543 86.3784 105.498L86.4415 105.484C86.6635 105.433 86.8875 105.386 87.1135 105.347H87.1359C87.3782 105.306 87.6206 105.272 87.867 105.247L88.0441 105.231L88.2478 105.215H88.2925C90.3257 105.057 92.3537 105.578 94.0595 106.695L94.084 106.711C94.3242 106.87 94.5605 107.043 94.7926 107.231L94.9718 107.375L95.1979 107.337C95.5923 107.273 95.9757 107.153 96.3362 106.98C98.6698 105.852 98.8348 102.838 98.8959 101.757C98.8959 101.661 98.9081 101.553 98.9203 101.419C98.9325 101.285 98.9488 101.144 98.9712 100.983C99.1106 99.9347 99.4129 98.9143 99.8672 97.9592C100.001 97.6797 100.15 97.4078 100.313 97.1446C102.225 94.0758 105.65 92.8133 110.495 93.3916L110.951 93.4466L111.053 92.9986C111.813 89.6203 113.069 87.1685 114.894 85.4987C118.07 82.5907 122.758 81.9656 126.837 83.9083C127.988 84.4533 129.039 85.1878 129.946 86.0811C133.905 89.9726 134.766 96.2568 131.995 101.03Z" fill="#11183F"/>
<path d="M78.1372 86.8467C75.9339 87.4983 74.5837 86.8345 73.9769 86.3804C73.2927 85.8693 72.8854 85.1423 72.8854 84.4336V82.6538C76.9358 82.2344 80.084 78.2085 79.8437 76.4246C79.6217 74.7792 76.5203 73.3354 72.1483 73.3354C67.7762 73.3354 64.4223 74.7365 64.2981 76.39C64.1657 78.1596 67.6459 82.4584 71.8672 82.6803V84.8918C71.8738 85.2051 71.8049 85.5154 71.6663 85.7965C71.5278 86.0775 71.3236 86.3211 71.071 86.5066C70.1974 87.1664 68.7923 87.2703 67.1185 86.7938C66.9883 86.757 66.8489 86.7735 66.7309 86.8396C66.6129 86.9057 66.5259 87.0159 66.4892 87.1461C66.4525 87.2762 66.469 87.4156 66.535 87.5336C66.6011 87.6516 66.7113 87.7386 66.8415 87.7753C67.554 87.985 68.292 88.096 69.0347 88.1052C70.0875 88.1052 70.9937 87.8404 71.6819 87.3191C72.0286 87.0582 72.3148 86.7255 72.5209 86.3437C72.7585 86.6686 73.0434 86.9562 73.366 87.197C74.2413 87.8307 75.2994 88.1618 76.3798 88.1398C77.0702 88.1321 77.7559 88.0258 78.4162 87.8242C78.5458 87.7858 78.6549 87.6975 78.7194 87.5788C78.784 87.46 78.7987 87.3205 78.7603 87.1908C78.722 87.0612 78.6337 86.9522 78.515 86.8876C78.3962 86.8231 78.2566 86.8084 78.127 86.8467H78.1372Z" fill="#11183F"/>
<path d="M77.1414 75.7547C77.1414 76.2313 74.7202 77.3838 71.9222 77.3838C69.1242 77.3838 67.0105 76.2313 67.0105 75.7547C67.0105 75.2782 69.3544 74.6083 72.1523 74.6083C74.9503 74.6083 77.1414 75.2762 77.1414 75.7547Z" fill="url(#paint6_linear_114_729)"/>
<path d="M48.2129 69.9754C48.1702 69.9762 48.1277 69.9707 48.0866 69.9592C47.9574 69.926 47.8464 69.8433 47.7774 69.7291C47.7085 69.6148 47.6872 69.4781 47.718 69.3482C48.2842 67.1245 49.5834 65.6278 51.3835 65.135C53.0126 64.687 54.9329 65.1493 56.0468 66.2632C56.1424 66.3588 56.1961 66.4884 56.1961 66.6236C56.1961 66.7588 56.1424 66.8884 56.0468 66.984C55.9512 67.0796 55.8215 67.1333 55.6863 67.1333C55.5511 67.1333 55.4215 67.0796 55.3259 66.984C54.5948 66.253 53.0981 65.7194 51.6604 66.1165C50.6524 66.3935 49.3247 67.2223 48.7199 69.6008C48.6898 69.7111 48.6234 69.8081 48.5314 69.876C48.4394 69.944 48.3272 69.979 48.2129 69.9754Z" fill="#11183F"/>
<path d="M93.6828 70.0936C93.5697 70.0939 93.4598 70.0564 93.3705 69.987C93.2812 69.9177 93.2177 69.8204 93.19 69.7108C92.5791 67.3323 91.2555 66.5035 90.2495 66.2266C88.8037 65.8295 87.3069 66.363 86.584 67.0941C86.537 67.1426 86.4808 67.1813 86.4186 67.2079C86.3565 67.2345 86.2897 67.2485 86.2221 67.249C86.1545 67.2494 86.0875 67.2365 86.0249 67.2108C85.9624 67.1851 85.9056 67.1472 85.8579 67.0994C85.8102 67.0515 85.7724 66.9946 85.7469 66.932C85.7214 66.8694 85.7086 66.8023 85.7093 66.7348C85.71 66.6672 85.7241 66.6004 85.7509 66.5383C85.7777 66.4762 85.8165 66.4201 85.8652 66.3732C86.9771 65.2614 88.8953 64.7971 90.5264 65.2451C92.3184 65.7379 93.6176 67.2346 94.1919 69.4603C94.2228 69.5899 94.2018 69.7264 94.1333 69.8406C94.0648 69.9548 93.9542 70.0376 93.8253 70.0712C93.7793 70.0862 93.7312 70.0938 93.6828 70.0936Z" fill="#11183F"/>
</g>
<defs>
<linearGradient id="paint0_linear_114_729" x1="69.7596" y1="8.49166" x2="69.7596" y2="143.977" gradientUnits="userSpaceOnUse">
<stop stop-color="#553672"/>
<stop offset="1" stop-color="#230631"/>
</linearGradient>
<linearGradient id="paint1_linear_114_729" x1="71.1443" y1="34.8766" x2="70.737" y2="109.611" gradientUnits="userSpaceOnUse">
<stop stop-color="#EBA04B"/>
<stop offset="1" stop-color="#CC7A3B"/>
</linearGradient>
<radialGradient id="paint2_radial_114_729" cx="0" cy="0" r="1" gradientUnits="userSpaceOnUse" gradientTransform="translate(73.4861 53.6343) scale(54.1061 47.6134)">
<stop stop-color="#F7CE7D"/>
<stop offset="1" stop-color="#EBA04B"/>
</radialGradient>
<linearGradient id="paint3_linear_114_729" x1="89.7546" y1="97.0446" x2="91.9946" y2="108.041" gradientUnits="userSpaceOnUse">
<stop stop-color="#F7CE7D"/>
<stop offset="1" stop-color="#EBA04B"/>
</linearGradient>
<linearGradient id="paint4_linear_114_729" x1="65.5789" y1="97.2708" x2="61.7526" y2="112.474" gradientUnits="userSpaceOnUse">
<stop stop-color="#F7CE7D"/>
<stop offset="1" stop-color="#EBA04B"/>
</linearGradient>
<linearGradient id="paint5_linear_114_729" x1="64.5159" y1="26.8268" x2="73.7467" y2="43.7978" gradientUnits="userSpaceOnUse">
<stop stop-color="#D2B4A5"/>
<stop offset="1" stop-color="#A98778"/>
</linearGradient>
<linearGradient id="paint6_linear_114_729" x1="68.3525" y1="75.9197" x2="77.0314" y2="76.0969" gradientUnits="userSpaceOnUse">
<stop stop-color="#E8E5EA"/>
<stop offset="1" stop-color="#9591AC"/>
</linearGradient>
<clipPath id="clip0_114_729">
<rect width="139" height="146.347" fill="white"/>
</clipPath>
</defs>
</svg>
