<svg width="56" height="56" viewBox="0 0 56 56" fill="none" xmlns="http://www.w3.org/2000/svg">
<path d="M28 3.8394e-05C22.4621 3.8394e-05 17.0486 1.64221 12.444 4.71888C7.83946 7.79556 4.25064 12.1686 2.13138 17.2849C0.0121317 22.4012 -0.542361 28.0311 0.538024 33.4625C1.61841 38.894 4.28515 43.8831 8.20101 47.799C12.1169 51.7148 17.106 54.3816 22.5375 55.462C27.9689 56.5424 33.5988 55.9879 38.7151 53.8686C43.8314 51.7494 48.2044 48.1605 51.2811 43.556C54.3578 38.9514 56 33.5379 56 28C56.0061 24.3213 55.286 20.6775 53.881 17.2777C52.476 13.8778 50.4138 10.7887 47.8126 8.18744C45.2113 5.58619 42.1222 3.52396 38.7223 2.11899C35.3225 0.714022 31.6787 -0.00605845 28 3.8394e-05ZM18 34.6671C17.6824 34.4575 17.4114 34.1846 17.204 33.8655C16.9967 33.5463 16.8573 33.1879 16.7947 32.8125C16.7321 32.4371 16.7476 32.0529 16.8402 31.6837C16.9328 31.3146 17.1005 30.9685 17.3329 30.6671L24.3322 23.6678C24.6336 23.4354 24.9797 23.2677 25.3488 23.1751C25.7179 23.0825 26.1022 23.067 26.4776 23.1297C26.853 23.1923 27.2114 23.3316 27.5305 23.539C27.8496 23.7464 28.1225 24.0173 28.3322 24.3349C28.6498 24.5446 28.9208 24.8175 29.1281 25.1366C29.3355 25.4557 29.4749 25.8142 29.5375 26.1896C29.6001 26.5649 29.5846 26.9492 29.492 27.3183C29.3994 27.6875 29.2317 28.0335 28.9993 28.3349L22 35.3342C21.6986 35.5666 21.3525 35.7344 20.9834 35.8269C20.6143 35.9195 20.23 35.935 19.8546 35.8724C19.4792 35.8098 19.1208 35.6705 18.8017 35.4631C18.4826 35.2557 18.2097 34.9847 18 34.6671ZM42 29.3343L26.6671 44.6671C26.3737 44.9927 26.0131 45.2507 25.6102 45.4233C25.2073 45.5958 24.7717 45.6788 24.3336 45.6664C23.9399 45.6675 23.5499 45.5908 23.1861 45.4406C22.8222 45.2905 22.4915 45.0699 22.2132 44.7916C21.9349 44.5132 21.7143 44.1826 21.5641 43.8187C21.414 43.4548 21.3372 43.0648 21.3383 42.6712C21.3771 41.7978 21.7323 40.9684 22.3376 40.3376L35.6705 26.9993L22.3281 13.6665C22.0025 13.3731 21.7445 13.0124 21.572 12.6095C21.3994 12.2066 21.3165 11.771 21.3288 11.3329C21.3277 10.9393 21.4044 10.5493 21.5546 10.1854C21.7047 9.82152 21.9253 9.4909 22.2037 9.21255C22.482 8.93421 22.8126 8.71362 23.1765 8.56348C23.5404 8.41334 23.9304 8.3366 24.324 8.33768C25.1974 8.37648 26.0268 8.73167 26.6576 9.33699L42 24.6671C42.3256 24.9605 42.5836 25.3212 42.7561 25.7241C42.9287 26.127 43.0116 26.5626 42.9993 27.0007C43.0463 27.4425 42.9791 27.8889 42.8041 28.2973C42.6291 28.7056 42.3523 29.0622 42 29.3329V29.3343Z" fill="white"/>
</svg>
